<?xml version="1.0" encoding="UTF-8"?>
<svg id="Camada_1" data-name="Camada 1" xmlns="http://www.w3.org/2000/svg" viewBox="0 0 1801.53 2643.06">
  <defs>
    <style>
      .cls-1 {
        fill: #e7be01;
      }

      .cls-2 {
        fill: #fbdb03;
      }

      .cls-3 {
        fill: #f3d201;
      }

      .cls-4 {
        fill: #826e01;
      }

      .cls-5 {
        fill: #dfac01;
      }

      .cls-6 {
        fill: #d3a103;
      }

      .cls-7 {
        fill: #978203;
      }

      .cls-8 {
        fill: #f2c702;
      }

      .cls-9 {
        fill: #a5920c;
      }

      .cls-10 {
        fill: #e2ba02;
      }

      .cls-11 {
        fill: #eccb01;
      }

      .cls-12 {
        fill: #f0ce02;
      }
    </style>
  </defs>
  <path class="cls-11" d="M1539.45,969.47c-.57.88-1.17,1.76-1.81,2.63.63-.87,1.23-1.74,1.81-2.63Z"/>
  <path class="cls-11" d="M1345.4,882.17c-1.34.62-2.64,1.24-3.9,1.86,1.27-.63,2.56-1.25,3.9-1.86Z"/>
  <path class="cls-11" d="M1352.15,879.2c-.17.09-.33.16-.5.23-1.05.44-2.08.88-3.09,1.31,1.01-.44,2.04-.88,3.09-1.32.17-.07.33-.14.5-.22Z"/>
  <path class="cls-10" d="M1742.74,709.34c-2.41-3.4-4.21-6.65-5.54-9.75-.24-.55-.46-1.09-.66-1.63-.23-.61-.45-1.21-.64-1.81-.15-.47-.3-.93-.43-1.39-.08-.26-.15-.52-.22-.78-.13-.52-.26-1.04-.37-1.55-1.35-6.09-.98-11.6-.02-16.69.13-.68.27-1.36.42-2.03.15-.67.31-1.33.47-1.99.16-.65.33-1.3.5-1.94.17-.64.34-1.27.51-1.9.09-.32.17-.63.26-.95.18-.62.35-1.24.51-1.84h0c.33-1.22.64-2.42.93-3.6h0c.16-.67.3-1.33.43-1.99.13-.65.25-1.29.34-1.93.27-1.88.38-3.72.22-5.52-.03-.36-.07-.72-.13-1.07-.04-.25-.08-.5-.13-.76-.1-.49-.22-.98-.36-1.46-.4-1.35-1-2.7-1.83-4.03-.18-.28-.36-.55-.55-.83-.19-.28-.4-.55-.61-.82-.22-.28-.44-.56-.68-.83-.24-.28-.49-.55-.75-.83l-.36-.36c-.12-.13-.24-.25-.37-.37-3.63-3.54-9.28-7.06-17.79-10.67-20.35-8.62-51.66,32.14-49.16,6.84.89-8.62,19.41-22.02,5.01-44.6-4.17-6.62-13.13-9.23-25.03-7.12-7.84,1.38-11.14,14.53-19.95,23.5-.42.43-.86.85-1.3,1.25-1.34,1.22-2.8,2.34-4.41,3.31-.54.33-1.1.63-1.67.92-.28.15-.58.29-.87.42-.89.41-1.81.77-2.79,1.09-.65.21-1.32.4-2.01.56-.34.08-.69.16-1.05.23-.53.1-1.08.2-1.63.28-.56.08-1.13.14-1.72.19-.78.07-1.58.11-2.41.12-.69.01-1.36-.03-2-.12-.58-.08-1.14-.19-1.68-.34t-.02-.01c-.18-.04-.35-.1-.53-.16-.7-.23-1.37-.53-2.01-.89-.32-.17-.63-.36-.93-.56h-.01c-.3-.21-.59-.43-.88-.67-.87-.71-1.67-1.54-2.39-2.49-.22-.29-.43-.58-.63-.88-.4-.59-.78-1.22-1.12-1.89-.17-.31-.32-.63-.47-.95-.37-.79-.71-1.63-1.01-2.5-1.28-3.67-9.34.61-12.35,1.11.06,3.01,1.06,8.23-5.61,11.68-1.99-3.17-4.28-5.94-6.81-8.4-.84-.82-1.71-1.6-2.6-2.35-.59-.5-1.2-.98-1.81-1.46-.92-.7-1.86-1.38-2.82-2.04-.64-.43-1.29-.85-1.94-1.27-.33-.2-.66-.41-.99-.61-.99-.61-2-1.19-3.02-1.74-.68-.37-1.36-.73-2.05-1.09-.69-.35-1.38-.7-2.08-1.04-.7-.34-1.4-.67-2.11-1-.7-.33-1.41-.65-2.12-.96-.35-.16-.7-.32-1.06-.47-1.42-.62-2.85-1.22-4.28-1.81-2.85-1.17-5.7-2.3-8.5-3.45-4.19-1.71-8.26-3.46-12.01-5.45-2.5-1.32-4.86-2.75-7.03-4.34-23.24-16.96-38.2-19.24-66.67-16.07-15.02,1.67-31.49,1.3-46.88,4.54-.88.18-1.75.38-2.62.59-1.75.42-3.47.89-5.18,1.42-.43.14-.85.27-1.28.41-1.06.35-2.11.73-3.15,1.13-.53.2-1.05.4-1.56.62-.63.26-1.26.53-1.88.81-1.09.49-2.17,1.02-3.23,1.58-2.4,1.27-4.73,2.7-6.99,4.34-.75.54-1.49,1.11-2.23,1.71-.74.61-1.48,1.23-2.21,1.89-.73.65-1.44,1.33-2.15,2.04-.69.7-1.38,1.41-2.06,2.16h0c-.61-.23-1.22-.5-1.83-.8-1.21-.59-2.41-1.3-3.57-2.11-.59-.4-1.17-.82-1.74-1.26-.85-.66-1.68-1.37-2.49-2.1-.54-.49-1.07-1-1.58-1.51-4.89-4.88-8.61-10.68-9.7-14.51-7.84-27.59-27.63-26.81-50.6-35.65-1.27-.49-2.51-1.2-3.72-2.09-.6-.44-1.2-.93-1.78-1.46-.39-.36-.78-.73-1.16-1.12-.39-.4-.76-.81-1.14-1.23-.56-.64-1.11-1.31-1.65-2.02-.36-.48-.71-.96-1.06-1.46-1.4-2-2.72-4.22-3.94-6.59-.31-.59-.6-1.19-.9-1.79-.29-.61-.58-1.22-.86-1.84-.14-.31-.28-.63-.42-.94-.27-.63-.54-1.26-.8-1.9-.13-.32-.26-.64-.39-.97-.25-.64-.5-1.29-.74-1.94-.24-.65-.47-1.31-.7-1.96-.34-.98-.66-1.97-.97-2.96-.1-.33-.2-.66-.3-1-.29-.99-.57-1.98-.83-2.96-1.87-7.12-2.8-14.01-2.5-19.2.04-.64.09-1.26.17-1.84,1.78-13.96,14.52-24.14,9.9-36.21-6.17,3.23-78.69,10.46-139.97,54.28-12.51,8.95-23.02,18.85-37.03,20.18-8.46-9.62-10.9-22.74-14.91-37.14l-21.57-77.52c-11.01-39.71-29.31-65.95-54.83-96.59l-35.26-42.32c-34.37-41.32-50.99-70.74-111.83-64.57-3.45-1.83-7.5-5.44-11.72-5.28-.07.11-.15.22-.23.33-.3.46-.62.91-.95,1.36.29-.4.56-.8.84-1.21.03-.05.07-.1.11-.15.07-.11.14-.22.22-.33-16.59.55-16.77-17.86-26.71-25.76-40.23-31.96-98.03-49.08-149.26-38.76,3.79-.47-60.75,22.85-56.42,53.18h0c.45,3.11-1.94,8.17-.83,10.84-61.23,45.32-96.87,132.51-105.6,206.64l-1.11,9.12c-6.34.45-3.29,9.29-3.9,13.51h0c-.44,2.84,1,6.18.34,8.96-2.23,9.62-.28,19.57-1.12,29.25h0c-1.34,16.07-.84,32.14-.5,48.27h0c.23,12.56-2.5,24.63,4.9,35.42,2.56,7.29-.17,18.19,1.33,25.97.41-.3.82-.54,1.23-.72.34-.15.68-.26,1.02-.33.17-.04.33-.07.5-.08.08-.01.17-.02.25-.01.35-.03.69-.01,1.03.05.26.04.51.1.77.18.33.1.66.24.99.41.48.25.96.57,1.41.93.15.12.3.25.44.38.15.14.3.28.44.42.86.85,1.62,1.87,2.27,2.94,3,5.06-3.4,9.9-5.34,13.46,0,8.9,4.28,18.85,4.89,27.69l.39,6.12c-9.95,11.01-25.02.22-37.87-1.06.82,2,.13,3.53-1.05,4.61-.41.37-.88.69-1.37.95-.24.13-.49.25-.74.35-.25.11-.49.2-.73.27-1.22.36-2.27.49-3.2.42h-.06c-1.17-.09-2.14-.48-2.99-1.09-.11-.08-.22-.17-.32-.25-.21-.17-.41-.35-.61-.55-.39-.4-.75-.84-1.11-1.32-1.7-2.38-2.98-4.61-1.13-7.23.09-.12.19-.25.29-.38-20.24,1.61-42.31-7.34-60.27,3.67-.15,1.69-.68,2.88-1.45,3.73-.2.21-.41.41-.63.58-.33.26-.7.48-1.09.66-1.17.55-2.55.8-3.99.98-.63.08-1.28.15-1.91.22-.32.04-.64.08-.95.12-.63.09-1.25.19-1.83.33-45.54,10.78-84.52,41.54-97.2,90.58-26.08,1.73-42.6,13.74-54.39,34.7-4.22,7.4-50.99,17.63-24.52,97.54,1.72,5.23,3.39,10.79,4.39,16.24.89,5.22-.17,10.78,1.06,16.01-25.08,51.71,25.57,54.67,23.13,100.63h-.02l-.87,15.87v.02c-.88,16.84,8.3,35.68,21.86,45.64,38.2,42.82,38.7,57.95,87.97,72.96,8.28,16.35,30.58,19.57,44.21,31.19h0c10.45,8.91,18.41,20.81,29.75,28.76h0c.7-.49,1.4-.92,2.11-1.29.94-.51,1.88-.93,2.83-1.26-.95.34-1.89.76-2.83,1.26-.71.38-1.41.81-2.11,1.29,5.68,19.9,23.52,32.64,38.65,45.93,1.44,12.29,12.33,16.4,21.62,21.85l-2.11-4.77,2.12,4.77h0c8.56,5.12,15.68,13.74,21.52,21.47l12.07,6.34c12.29,6.5,28.97,8.23,37.92,19.96,1.13,0,2.27,0,3.4.02,1.61.02,3.21.09,4.81.2.8.04,1.6.1,2.4.17,1.9.15,3.8.36,5.69.61,2.11.28,4.28.28,6.39.72,1.73.28,4.06-.55,5.67.17-.04-.17-.08-.35-.1-.54.03.19.07.37.11.54,1.61.73,3.24,1.39,4.89,1.99,1.1.4,2.22.77,3.34,1.11,1.12.34,2.25.66,3.39.95s2.28.55,3.43.79,2.3.46,3.46.65c2.89.48,5.81.81,8.73,1.02,1.8.13,3.61-.15,5.42-.48.72-.13,1.44-.27,2.16-.39.48-.08.96-.16,1.43-.21.18-.02.36-.04.54-.06.18-.02.36-.04.54-.04.09-.01.18-.02.27-.02.09-.01.19-.01.28-.01.06-.01.12-.01.18-.01.18-.01.35-.01.53-.01.29.18.57.4.85.66.14.12.28.26.41.4,1.02,1.05,1.96,2.42,3,3.5.07.07.14.14.21.21.21.2.43.39.65.57.15.11.3.22.45.32.15.1.31.18.47.26.16.08.32.14.49.19.08.03.17.05.25.07,3.48.81,6.95,1.95,10.44,3.23,1,.36,2,.74,3,1.13,5.51,2.12,11.09,4.48,16.88,6.41,1.05.35,2.11.69,3.18,1.01,5.34,1.59,10.86,2.72,16.66,2.9l76.24,2.05c.1,0,.21.01.33.02.11,0,.23.01.36.02.08,0,.17.01.25.02.16.02.33.04.5.06h0s.02-.01.02,0c.12.01.24.03.36.04.33.06.67.12,1,.19.2.04.4.09.59.14.27.07.55.16.81.25.13.04.26.09.38.14.3.12.59.26.85.41l.3.18s.1.06.14.1c.11.08.22.17.32.26.06.05.12.11.17.17.1.1.19.21.26.32.15.22.26.46.31.72.01.07.02.13.03.2.02.18,0,.35-.02.54-.03.23-.1.47-.21.73-.06.12-10.69-14.51-6.43,4.3,3.28.78,13.41-4.63,16.63-3.69.46.14.9.33,1.34.57.44.24.88.51,1.31.82.21.15.42.3.64.47.21.16.42.32.63.49.22.17.43.34.64.51.11.08.21.17.32.25.21.17.42.34.63.5.11.08.22.17.32.25.53.4,1.07.77,1.62,1.09.99.58,2.03.96,3.12.95l13.18-.12,20.96-1.11c.9-.05,1.8-.1,2.69-.16.51-.03,1.02-.07,1.52-.11.69-.05,1.38-.1,2.06-.16.77-.06,1.53-.13,2.29-.21.52-.05,1.04-.1,1.55-.16,1.22-.12,2.42-.26,3.61-.42.47-.05.94-.11,1.4-.18,1.64-.22,3.25-.46,4.84-.72.44-.07.88-.14,1.31-.22,3.06-.52,6.01-1.11,8.87-1.76.51-.11,1.02-.23,1.53-.36,2.02-.47,3.99-.98,5.92-1.52.59-.16,1.17-.32,1.74-.49.97-.28,1.93-.57,2.88-.86.28-.08.55-.17.82-.26,1.09-.34,2.16-.69,3.22-1.05.53-.17,1.06-.35,1.58-.54,1.04-.36,2.07-.73,3.09-1.11.77-.28,1.53-.57,2.28-.86.81-.31,1.61-.63,2.4-.95.63-.25,1.27-.51,1.89-.77,1.14-.48,2.26-.96,3.37-1.45.37-.15.73-.32,1.09-.48,2.43-1.08,4.77-2.18,7.05-3.3,1.2-.59,2.38-1.17,3.54-1.77,5.52-2.81,10.62-5.63,15.46-8.26.64-.35,1.27-.69,1.9-1.03s1.25-.67,1.87-1c.65-.35,1.3-.69,1.94-1.03.64-.34,1.28-.67,1.91-.99,1.14-.6,2.27-1.17,3.4-1.71.47-.24.95-.47,1.42-.68.47-.23.93-.44,1.41-.66.51-.23,1.02-.46,1.52-.68.51-.23,1.01-.44,1.52-.65,1.22-.51,2.43-.99,3.63-1.41.3-.12.6-.23.9-.32.6-.22,1.21-.41,1.81-.59.34-.12.67-.22,1.01-.31,1.01-.3,2.02-.57,3.04-.79.33-.08.67-.16,1.01-.22.46-.1.92-.19,1.39-.26.11-.03.22-.05.33-.06.45-.08.89-.15,1.34-.2.3-.04.6-.07.91-.11.3-.04.61-.07.91-.1.28-.03.56-.04.83-.05.86-.04,1.7-.02,2.54.06.28.02.56.05.84.09.28.04.56.08.84.13.28.04.55.1.83.16.28.05.55.12.83.19.3.07.6.15.9.24.25.08.49.15.74.23.34.11.67.22,1.01.35.34.12.67.25,1.01.39.29.12.57.24.85.36.05.02.1.04.15.07.34.14.67.3,1,.46.33.16.66.32.99.49.23.12.47.24.7.37.24.13.47.26.71.39.84.47,1.68.97,2.52,1.5.19.11.37.23.56.35.37.23.73.47,1.09.71.46.29.92.61,1.38.92.69.47,1.38.95,2.06,1.43.46.32.91.64,1.37.97.46.32.91.65,1.37.97.78.55,1.56,1.1,2.33,1.64.13.1.26.19.4.28.45.32.9.63,1.36.94.45.31.91.61,1.36.91.34.23.68.44,1.02.66,2.14,1.36,4.28,2.57,6.45,3.5.26.11.52.22.78.32.29.12.58.23.87.33.29.11.58.21.87.3.29.09.59.18.88.26.35.1.69.19,1.04.27.33.07.66.14.99.19.21.04.41.07.62.1.3.04.59.07.89.1.3.03.59.05.89.06,1.37.06,2.77-.04,4.18-.34,1.36-.28,2.9-.5,4.46-.5.21,0,.42,0,.63.02.14,0,.28,0,.42.02.22,0,.43.03.65.06.48.05.96.13,1.43.25.17.04.34.08.51.14.17.04.33.1.49.16.38.13.76.29,1.12.49.15.07.29.15.43.24.14.08.28.17.42.27.18.12.35.25.53.4.22.18.44.37.65.59.13.13.26.27.39.42.13.15.25.3.37.45,0,.01.01.02.01.02.12.16.23.32.32.49.1.16.2.34.29.51.17.36.32.73.42,1.11.05.19.1.38.13.58.04.19.06.39.08.59.04.34.04.69.02,1.04-.02.29-.06.59-.12.88-.04.19-.09.38-.16.58,0,0,0,.03-.01.04-.05.19-.12.38-.2.57-.04.1-.08.2-.14.31-.1.22-.22.45-.35.67,1.19.45,2.39.94,3.6,1.45.61.25,1.21.5,1.82.74.61.25,1.22.49,1.84.72.38.14.76.28,1.15.41.15.07.31.12.48.17.38.13.77.26,1.16.37.62.19,1.25.36,1.88.51t.02,0c.63.14,1.26.26,1.89.36.33.05.65.09.97.12.15.02.3.03.45.04.29.03.58.04.87.05,2.03.06,3.89.42,5.71,1.05.43.14.85.3,1.27.48.32.12.63.26.95.41.31.13.63.28.95.45.64.3,1.28.65,1.93,1.02.21.12.43.24.65.37.66.38,1.33.79,2.02,1.22.42.26.84.53,1.27.79.03.02.07.04.1.07.24.15.47.3.71.45.75.48,1.52.97,2.32,1.49,1.09.69,2.24,1.42,3.45,2.17.91.56,1.86,1.13,2.86,1.71,1.79-1.97,2.33-4.19,1.9-6.56-.04-.21-.08-.43-.14-.64-.02-.07-.03-.14-.06-.21-.05-.23-.13-.47-.21-.7-.06-.2-.14-.4-.22-.6,0-.03-.02-.05-.03-.07-.05-.15-.11-.29-.18-.43-.06-.15-.13-.29-.2-.43-.04-.09-.08-.18-.13-.27-.02-.05-.04-.09-.07-.13-.07-.16-.15-.32-.24-.47-.12-.22-.24-.44-.38-.67-.3-.51-.64-1.02-1.01-1.54-.13-.19-.27-.37-.41-.56-.16-.23-.35-.47-.54-.71-.74-.95-1.58-1.9-2.49-2.86-.29-.31-.59-.61-.9-.92-.29-.3-.59-.59-.9-.89-.22-.21-.45-.43-.68-.64-.41-.39-.84-.78-1.27-1.16-.34-.31-.69-.62-1.05-.92-.57-.5-1.16-1-1.75-1.48-.43-.36-.87-.71-1.31-1.06-.55-.44-1.1-.87-1.67-1.3-.15-.12-.31-.24-.47-.36-.72-.55-1.45-1.1-2.19-1.64-1.52-1.11-3.07-2.2-4.62-3.25-.72-.5-1.45-.99-2.17-1.47-.76-.5-1.51-1-2.27-1.49-2.4-1.55-4.75-3.02-6.96-4.37-.56-.34-1.12-.68-1.66-1.01-.17-.1-.34-.2-.5-.3-.25-.15-.5-.3-.74-.44-4.13-2.48-7.52-4.42-9.4-5.59-.3-.19-.56-.35-.78-.5-.22-.14-.4-.27-.53-.37-.07-.05-.12-.1-.17-.14-.09-.08-.14-.14-.14-.18,0-.02.01-.03.03-.04s.04-.01.07-.01h.12c-.89-4.12-2.67-8.94-6.95-13.12l-7.12-7.01-45.04-44.32h-.01c.31-.35.63-.69.94-1,.15-.16.31-.32.46-.46.31-.31.62-.59.93-.85.62-.55,1.24-1.02,1.85-1.44.63-.43,1.25-.81,1.87-1.12.31-.17.61-.32.92-.45.16-.07.31-.14.47-.2.31-.13.61-.25.92-.35.34-.12.69-.23,1.04-.32.26-.08.53-.14.8-.2.08-.02.15-.04.23-.05.23-.05.46-.09.69-.13.2-.04.41-.07.61-.09.25-.04.5-.07.76-.09.38-.04.76-.07,1.14-.08.18-.01.36-.02.54-.01.95-.03,1.89,0,2.81.07.76.05,1.51.12,2.25.2.25.02.5.05.74.08.49.06.97.12,1.45.17.77.09,1.54.18,2.3.24.27.02.53.05.8.06.32.03.65.04.98.05.28.01.56.02.84.02h.13c-.18-.19-.36-.39-.53-.6-.2-.23-.39-.47-.58-.71-.19-.25-.38-.5-.57-.76-.51-.69-.99-1.43-1.47-2.19-.31-.5-.62-1.02-.93-1.54-.18-.29-.35-.59-.53-.89-.72-1.19-1.44-2.41-2.18-3.57-.19-.29-.38-.58-.57-.87,0-.01-.02-.03-.03-.04-.27-.4-.55-.8-.83-1.18-.03-.04-.05-.07-.08-.1-.18-.25-.37-.5-.57-.74-.22-.29-.45-.57-.69-.84-.3-.35-.62-.69-.94-1-.2-.19-.4-.38-.6-.56-.23-.2-.46-.39-.69-.57-.16-.13-.32-.24-.48-.35-.24-.17-.48-.33-.73-.47-.22-.14-.45-.26-.68-.37-4.31-2.1-8.7-4.28-13.09-6.58-1.39-.73-2.79-1.47-4.18-2.22h0c-1.07-.58-2.13-1.17-3.19-1.77-1.16-.64-2.33-1.31-3.48-1.99-.96-.56-1.92-1.13-2.87-1.71-.87-.53-1.74-1.06-2.6-1.61-.79-.5-1.58-1-2.36-1.52-1.7-1.12-3.39-2.27-5.03-3.46-.34-.24-.68-.48-1.02-.74-.1-.06-.19-.13-.28-.21-.54-.39-1.08-.79-1.61-1.2-1.1-.84-2.18-1.69-3.24-2.57-.35-.28-.7-.58-1.05-.88-.35-.29-.69-.58-1.04-.89-.34-.29-.68-.59-1.02-.9-.19-.16-.38-.34-.57-.52-.29-.26-.58-.53-.87-.8-.39-.35-.78-.72-1.17-1.1-.3-.29-.6-.58-.9-.88-.3-.29-.59-.59-.89-.9-.32-.32-.63-.65-.94-.98-.16-.16-.31-.32-.46-.49-.29-.3-.57-.61-.85-.92-.18-.2-.36-.4-.54-.61-.3-.35-.6-.69-.9-1.04-.14-.16-.28-.33-.42-.5-.74-.88-1.45-1.78-2.14-2.69-.28-.36-.55-.72-.81-1.09-.25-.34-.5-.69-.74-1.04-.28-.4-.55-.8-.81-1.2-.26-.38-.51-.76-.75-1.14-.24-.38-.48-.77-.71-1.15-.24-.39-.47-.78-.7-1.18-.22-.39-.45-.79-.67-1.19-.21-.4-.43-.8-.64-1.21-.21-.4-.41-.81-.61-1.22-.2-.41-.4-.82-.59-1.24-.16-.34-.31-.69-.46-1.04-.21-.47-.41-.95-.61-1.44-.2-.48-.39-.97-.57-1.46.28-.32.55-.64.81-.97.25-.32.5-.64.74-.97.32-.45.63-.91.93-1.37.2-.32.39-.64.58-.97.1-.16.19-.33.28-.49.22-.39.42-.77.61-1.17.14-.27.28-.54.4-.82.23-.49.44-.98.64-1.48.09-.2.17-.4.24-.61.35-.89.66-1.79.94-2.71-.37.02-.72.03-1.04,0-.12,0-.23,0-.34-.02-.34-.03-.65-.07-.93-.15-.07-.01-.13-.03-.2-.05-.11-.03-.21-.06-.31-.1-.12-.04-.23-.08-.33-.14-.1-.05-.2-.11-.29-.17-.06-.03-.12-.07-.17-.12-.05-.03-.1-.07-.15-.12-.02-.01-.03-.02-.05-.04-.05-.04-.09-.08-.12-.12-.08-.07-.14-.15-.2-.23-.12-.16-.22-.34-.3-.53-.03-.06-.05-.12-.07-.19-.03-.06-.05-.12-.06-.19-.04-.14-.06-.28-.08-.43-.02-.16-.03-.31-.03-.47,0-.7.17-1.51.5-2.39-16.35-6.01-26.19-21.3-40.59-30.98-26.2-17.51-17.97-43.98-61.67-30.08-4.9-.56-6.62-13.29-5.95-17.13-14.96-5.45-16.85-23.52-20.69-37.59-10.85,4.78-20.41-52.11-12.07-58.95,5.62-4.67,12.4,4.9,19.58,6.46,16.18,3.39,27.52-16.19,42.98-18.08,22.36-2.78,42.93-2.78,61.17-13.29-.33-1.94-.61-4.06-.61-6,.06-12.85-3.23-100.93,5.89-94.82,9.96-51.55,8.4-107.99,31.37-158.65,4.84-10.62,35.14-7.01,29.92-30.86-2.78-12.68,1.11-28.09,5.11-38.93,3.12-8.45,7.01-18.07,15.63-20.02,8.56-1.89,26.25-5.78,26.13,3.78-.27,22.75,6.4,39.48,9.4,57.11,11.07,64.56,19.24,128.74,15.13,194.36-.45,6.84-1,13.68-1.06,20.52,0,3.78,1.39,8.12-1.67,12.51-1.66,2.45-4.06,4.23-7.17,1.11l-.78,36.76c3.73,7.23,11.85,4,17.85,1.39,3.45-5.78,6.95-11.4,14.57-12.12h0c.5-10.91-.61-24.7,9.62-32.37,7.17-5.34,20.5-12.89,31.01-12.4v-.03h.02c-.04-.72,0-1.44.06-2.16.03-.26.07-.52.11-.79.08-.5.18-1,.31-1.5.06-.26.14-.51.22-.77.15-.52.34-1.03.54-1.55.16-.4.33-.8.52-1.19.08-.17.16-.35.25-.52.15-.31.31-.62.48-.93.14-.26.29-.53.45-.79.17-.3.35-.59.54-.88.19-.3.38-.6.59-.9.2-.3.41-.59.62-.89.22-.3.44-.6.67-.89.28-.38.57-.75.88-1.12.27-.33.54-.65.82-.98.26-.3.53-.61.81-.91.54-.61,1.12-1.21,1.72-1.82.3-.3.6-.61.91-.91.5-.49,1.01-.98,1.54-1.46.27-.26.53-.5.8-.73.34-.31.69-.62,1.05-.93,3.56-3.11,7.67-6.2,12.19-9.24.26-.18.52-.35.78-.52,1.49-.99,3.02-1.98,4.58-2.95.38-.24.76-.48,1.15-.72.65-.4,1.3-.79,1.96-1.19.64-.38,1.28-.76,1.93-1.14.25-.15.51-.3.76-.45.63-.37,1.27-.73,1.91-1.1,1.12-.64,2.24-1.27,3.37-1.89.67-.37,1.35-.74,2.03-1.11,1.37-.74,2.76-1.48,4.15-2.2.93-.49,1.87-.97,2.81-1.45,1.41-.72,2.83-1.43,4.26-2.13.95-.47,1.91-.93,2.87-1.39s1.92-.92,2.88-1.37h.01c.96-.46,1.92-.91,2.89-1.35,1.93-.89,3.87-1.76,5.8-2.61.67-.29,1.33-.58,2-.87,1.39-.61,2.78-1.2,4.16-1.78,1.08-.46,2.16-.91,3.24-1.35.72-.3,1.43-.59,2.15-.88.95-.39,1.9-.77,2.84-1.14,2.07-.83,4.11-1.62,6.13-2.38,1.21-.46,2.41-.91,3.59-1.34.24-.09.48-.18.71-.26.66-.24,1.32-.48,1.98-.72.16-.06.32-.12.48-.17.68-.25,1.36-.49,2.03-.72.37-.13.73-.26,1.09-.38.37-.13.73-.26,1.09-.38,5.35-1.84,10.34-3.41,14.79-4.66.49-.14.97-.27,1.45-.4.22-.07.44-.13.66-.18.68-.19,1.36-.37,2.01-.53,2.67-.68,5.07-1.23,7.18-1.61.58-.11,1.13-.2,1.66-.28.2-.03.4-.06.59-.09,1.35-.2,2.53-.31,3.52-.33l31.46,9.56c.08-.25-22.16-10.26-22.06-10.48.07-.15.14-.3.22-.44.08-.16.17-.32.27-.47.12-.2.26-.39.4-.57.1-.12.2-.23.3-.34.1-.11.2-.22.31-.31.43-.42.9-.76,1.41-1.04.24-.14.48-.26.74-.37.13-.06.26-.12.39-.17.3-.13.61-.24.93-.33.58-.19,1.18-.34,1.79-.47.38-.09,2.72-.53,3.42-.68.41-.08,1.63-.2,1.22-.27-23.38-4.06-9.11,17.6-8.82,17.51l30.12-23.7c.71-.21,1.43-.41,2.14-.61.71-.2,1.43-.39,2.15-.58,1.43-.39,2.87-.76,4.31-1.11,1.44-.36,2.88-.71,4.33-1.05,2.16-.51,4.33-1,6.5-1.5.72-.17,1.44-.33,2.16-.5.72-.16,1.45-.33,2.17-.5,2.16-.5,4.32-1.02,6.47-1.55,1.43-.36,2.86-.72,4.27-1.11,2.14-.57,4.26-1.18,6.36-1.83.53-.16,1.05-.33,1.57-.5,1.05-.34,2.09-.69,3.13-1.06.52-.18,1.03-.37,1.55-.56,1.55-.57,3.08-1.18,4.6-1.83.51-.21,1.01-.43,1.52-.66,2.01-.9,4-1.88,5.96-2.95.65-.36,1.3-.72,1.95-1.1,1.29-.75,2.56-1.55,3.82-2.39.42-.28.84-.56,1.25-.86.21-.15.42-.29.63-.44.38.06.75.13,1.12.22.35.08.69.17,1.03.26.13.03.25.06.37.11.21.06.42.13.63.2.1.02.19.06.29.1.29.1.58.21.87.33.16.07.33.14.49.21,1.15.51,2.22,1.12,3.22,1.84.5.36.99.74,1.46,1.15.23.2.46.41.68.63.26.25.51.5.76.76.37.38.71.78,1.04,1.2.27.32.52.65.76.99.02.01.03.03.03.05.23.3.44.61.64.93.04.06.08.12.12.18.11.19.23.38.35.58.17.29.34.59.5.89.17.3.33.61.47.93.19.37.36.76.53,1.15.04.08.07.16.1.25.15.35.29.72.42,1.08.13.35.25.69.36,1.05.08.25.16.49.23.74.1.32.19.65.27.98.05.18.09.35.13.53.04.18.08.36.12.54.07.3.13.61.18.91.22,1.15.37,2.33.46,3.51,1.17,7.34-1.33,14.46-2.5,22.64-1.73,11.84-12.51,7.06-20.58,10.62-16.79,7.51-30.58,21.63-49.32,23.97-1,8.67-6.9,17.35-6.34,26.19.09,1.5.08,2.97-.02,4.4,0,.17,0,.33-.03.5-.02.3-.05.61-.08.91-.02.21-.04.41-.07.62-.04.34-.08.68-.14,1.02-.06.43-.14.86-.22,1.28-.05.3-.12.6-.19.9t0,.02c-.04.18-.08.37-.13.56-.06.28-.13.57-.21.85s-.16.56-.24.84c-.09.32-.19.64-.3.96-.18.56-.38,1.11-.59,1.66-.08.22-.17.43-.26.65-.24.58-.49,1.16-.77,1.73-.05.1-.09.2-.14.3-.3.62-.63,1.24-.97,1.84-.14.25-.28.5-.43.74-.19.32-.39.64-.6.96-.57.91-1.19,1.79-1.86,2.65-.08.11-.17.21-.25.32-.44.56-.89,1.11-1.37,1.65-.23.27-.47.53-.71.79-.27.3-.55.59-.84.88-.38.39-.77.78-1.17,1.16-.62.59-1.26,1.17-1.93,1.73-.57.48-1.15.95-1.75,1.41-.44.34-.89.68-1.35,1.01-.54.38-1.09.76-1.65,1.13-.56.37-1.13.73-1.7,1.09-.38.24-.77.47-1.16.7-.19.11-.37.22-.56.34-.36.25-.72.52-1.07.81-.32.26-.63.55-.94.86-.12.11-.23.22-.34.34-.2.2-.39.4-.58.62-.16.17-.31.34-.45.51-.16.17-.31.34-.45.52-.19.22-.37.44-.55.67-.06.07-.12.14-.17.21-.24.29-.48.59-.72.9-.3.37-.59.75-.89,1.12-.27.35-.54.69-.81,1.03-.34.41-.67.82-1,1.21-.26.3-.52.59-.78.88-.22.24-.44.48-.67.71-.13.14-.27.28-.41.41-.14.14-.28.27-.42.4-.28.27-.57.51-.86.74-.15.12-.3.24-.46.36-.12.09-.24.18-.37.27-.16.11-.31.22-.47.32-.23.14-.46.27-.7.4-.38.21-.77.4-1.17.55-.1.04-.2.08-.3.11-.11.05-.21.08-.32.11-.07.02-.14.04-.21.06-.05.02-.09.04-.13.04-.15.05-.29.09-.45.12-.51.12-1.05.19-1.6.22-.02.23-.06.48-.14.74-.04.15-.1.31-.16.47-.02.06-.04.12-.07.18-.04.1-.09.21-.14.32-.08.18-.17.37-.28.56-.09.19-.2.39-.33.6-.11.2-.24.41-.38.63-.08.13-.17.26-.26.39-.02.03-.04.07-.06.1-.14.2-.27.4-.42.61-.51.72-1.1,1.49-1.75,2.29-.36.44-.74.9-1.15,1.38-.68.8-1.41,1.62-2.19,2.47-.31.34-.63.68-.96,1.03-.66.71-1.35,1.42-2.06,2.17l-.55.55c-.19.18-.37.37-.55.56l-1.13,1.13c-1.73,1.71-3.58,3.49-5.52,5.32-.43.4-.86.8-1.31,1.22-4.4,4.1-9.21,8.37-14.03,12.53-.66.57-1.33,1.15-1.99,1.71-1.99,1.71-3.97,3.39-5.92,5.02-.48.4-.95.8-1.42,1.18-3.05,2.55-6,4.97-8.75,7.18-.58.47-1.15.93-1.71,1.38-3.43,2.75-6.48,5.13-8.93,6.98-.38.28-.74.55-1.09.81-.18.14-.35.27-.51.38-.24.17-.46.34-.68.5-.94.69-1.73,1.25-2.35,1.67-2.11,4.34-4.06,8.79-5.12,13.51.24.06.48.12.72.19.44.11.88.23,1.3.36.42.12.83.25,1.23.38.69.22,1.35.46,1.98.71.39.15.76.31,1.12.47.73.32,1.41.66,2.05,1.01.9.5,1.72,1.02,2.46,1.58.17.13.34.26.51.4.17.14.34.28.51.43.23.2.45.4.66.6.21.2.41.41.6.62.16.16.3.32.42.48.1.11.2.23.29.35.27.32.51.64.72.97.04.05.07.11.11.16.11.16.21.32.31.49.1.17.2.33.29.5.2.36.38.72.55,1.09.1.2.18.4.27.61.11.29.22.59.32.89.18.5.33,1.02.45,1.54.05.2.1.4.14.61.04.2.08.41.12.61.04.19.07.39.1.58.04.22.07.44.1.67.05.36.09.71.12,1.07.04.48.08.97.11,1.46.02.5.04,1,.04,1.5.07,4.19-.39,8.54-.19,12.65.04.75.1,1.48.18,2.21.06.48.13.97.22,1.45.09.47.19.94.3,1.41.12.46.25.92.41,1.37.15.45.33.9.52,1.33.19.44.41.87.65,1.29.06.1.12.2.19.3s.14.19.22.29c.33.41.75.79,1.26,1.15.3.21.63.41.98.6.57.3,1.21.58,1.92.84.35.13.72.25,1.11.37.05.01.09.03.14.04.41.12.83.24,1.28.35.14.03.28.07.43.1.32.08.66.15,1,.22.34.07.69.14,1.05.2.26.05.53.1.8.14,1.08.18,2.22.33,3.43.46.69.07,1.4.14,2.13.2,1.48.12,3.04.21,4.67.27.56.03,1.13.05,1.71.06.31.01.62.02.94.02,2.91.06,6,.05,9.24-.04.43-.01.87-.02,1.3-.04.44-.01.88-.03,1.33-.04.48-.02.97-.04,1.46-.06.24,0,.48-.02.73-.03,1.19-.05,2.39-.12,3.61-.18.99-.05,1.99-.11,3-.18,1.21-.08,2.45-.16,3.69-.26.75-.05,1.51-.11,2.27-.17.76-.06,1.52-.12,2.29-.19.76-.06,1.53-.13,2.3-.2.7-.06,1.4-.12,2.1-.19.7-.06,1.4-.13,2.11-.2,2.82-.28,5.65-.58,8.46-.9,5.06-.58,10.08-1.22,14.93-1.9,1.08-.15,2.15-.3,3.21-.45.07-.02.15-.03.23-.03.98-.15,1.95-.29,2.91-.44,1.03-.16,2.06-.31,3.07-.47,2.53-.4,4.98-.8,7.32-1.19,3.62-.62,6.99-1.24,10.02-1.84.38-.07.75-.14,1.12-.22.37-.07.73-.14,1.09-.22,1.25-.25,2.43-.5,3.54-.75.32-.07.64-.14.94-.21.46-.1.91-.21,1.33-.31.27-.06.53-.13.78-.19.48-.11.94-.23,1.38-.34.26-.07.52-.13.76-.2,24.69,81.8-33.03,38.31-6.17,93.36.71-.3,1.41-.6,2.13-.89.1-.05.2-.09.31-.13.61-.24,1.23-.49,1.84-.74,1.44-.57,2.89-1.13,4.35-1.67,1.04-.38,2.09-.75,3.14-1.11.53-.18,1.06-.36,1.59-.53.53-.17,1.06-.34,1.59-.51,2.98-.93,5.99-1.75,9.02-2.42,1.72-.38,3.46-.72,5.19-1,.44-.07.87-.14,1.31-.2.87-.12,1.73-.23,2.6-.33.87-.1,1.75-.19,2.62-.25.87-.06,1.74-.11,2.6-.15.44-.02.87-.03,1.31-.04.52-.01,1.04-.02,1.57-.01.52,0,1.03.01,1.55.03.22,0,.45.01.67.02.44.02.88.04,1.32.07.96.05,1.91.13,2.87.24.26.02.52.06.77.09.83.1,1.65.22,2.47.36.94.14,2.31.34,3.55.34.74,0,1.43-.08,1.96-.29l84.47-33.08c2.89-1.17,6.84.22,9.79-.72h0c-.26-.42-.38-.82-.38-1.21,0-.09.01-.18.02-.27.03-.19.08-.39.16-.57.06-.13.13-.27.21-.4.11-.18.24-.35.4-.51.06-.08.14-.16.22-.22.06-.06.12-.12.19-.18.45-.4,1-.75,1.59-1.05.2-.1.42-.2.63-.28.22-.1.43-.18.64-.25h0c.12-.04.25-.08.38-.11.25-.08.5-.14.74-.18.12-.03.24-.05.35-.06.45-.06.86-.06,1.18,0,6.95,1.51,11.29-5.11,16.74-6.78.02-.33.05-.64.1-.95.02-.15.05-.3.09-.45.01-.07.03-.14.05-.21.02-.06.04-.13.06-.2s.04-.14.06-.2c.02-.07.04-.14.06-.2,0-.02,0-.04.02-.06.05-.13.1-.25.15-.37.05-.13.11-.26.18-.38.04-.09.08-.18.13-.26.07-.11.13-.22.2-.33,0,0,0,0,0-.02.05-.08.11-.17.17-.25.06-.08.12-.16.18-.24.08-.11.17-.22.27-.33.06-.08.13-.16.21-.24.11-.12.22-.23.33-.34.1-.1.21-.2.33-.29.11-.1.23-.2.36-.3.25-.2.5-.38.77-.55.12-.08.24-.16.36-.23.29-.18.6-.35.92-.51.15-.08.3-.15.45-.22.15-.08.31-.15.47-.22.47-.21.96-.41,1.47-.59h.01c.31-.12.62-.23.94-.33.21-.07.42-.14.63-.2.89-.28,1.82-.54,2.75-.78.22-.06.45-.12.67-.18.34-.09.68-.18,1.02-.26.19-.05.37-.1.56-.14.38-.1.76-.2,1.13-.29.38-.1.75-.2,1.12-.29.37-.1.74-.2,1.1-.31.42-.12.82-.24,1.22-.36.31-.1.61-.19.91-.29.35-.12.69-.24,1.02-.37.33-.12.66-.25.97-.39.24-.11.48-.21.71-.33.38-.18.74-.37,1.08-.57.12-.07.25-.15.37-.23.3-.19.59-.39.86-.6.23-.17.44-.35.64-.54.22-.21.42-.42.61-.65.29-.33.54-.69.75-1.08.35-.63.7-1.25,1.05-1.86.16-.26.31-.51.46-.76.35-.59.71-1.17,1.07-1.74.03-.05.05-.09.08-.13.37-.59.75-1.17,1.14-1.74.12-.18.24-.36.37-.55.32-.48.65-.95.98-1.41.38-.54.77-1.07,1.17-1.6.02-.04.04-.07.08-.11.2-.28.41-.55.61-.82l.63-.81c.29-.38.59-.76.89-1.13.34-.43.69-.85,1.04-1.27.3-.37.6-.73.91-1.08.36-.43.73-.85,1.1-1.27s.74-.84,1.11-1.25c.37-.41.75-.82,1.13-1.23.38-.41.76-.81,1.14-1.21.55-.58,1.11-1.15,1.67-1.73.56-.56,1.12-1.13,1.69-1.69.72-.71,1.45-1.41,2.17-2.11.73-.7,1.46-1.4,2.2-2.09.07-.06.15-.13.22-.2.77-.72,1.55-1.43,2.33-2.15.77-.71,1.55-1.42,2.33-2.13.63-.57,1.26-1.15,1.9-1.73,1.13-1.03,2.27-2.06,3.39-3.09.57-.51,1.13-1.04,1.7-1.56,1.12-1.04,2.23-2.08,3.33-3.15.55-.53,1.1-1.06,1.65-1.6.64-.62,1.27-1.25,1.88-1.88.45-.46.9-.92,1.35-1.39t.02-.02c.53-.54,1.05-1.1,1.58-1.66,2.1-2.27,4.13-4.63,6.06-7.12h0c.33-.44.66-.87.98-1.31.63-.87,1.23-1.74,1.81-2.63.12-.19.24-.38.35-.57.24-.36.46-.73.68-1.1.11-.17.21-.34.3-.52.01-.01.01-.02.02-.03.1-.16.2-.33.29-.49.13-.22.26-.44.37-.67.02-.04.04-.07.06-.11.38-.65.72-1.31,1.06-1.97.24-.47.47-.93.69-1.4.23-.47.45-.94.67-1.41.2-.43.39-.86.58-1.29.08-.17.15-.34.22-.51.24-.51.46-1.04.67-1.56.58-1.39,1.12-2.79,1.65-4.21.27-.73.54-1.47.81-2.21.04-.12.09-.25.13-.37.49-1.36.96-2.73,1.43-4.11.04-.13.09-.25.13-.38.28-.81.56-1.63.84-2.45.06-.19.13-.38.19-.57.26-.76.52-1.52.79-2.28.26-.77.53-1.53.8-2.3.18-.51.37-1.03.55-1.54.23-.64.47-1.28.71-1.92.29-.77.58-1.54.89-2.31.16-.39.31-.78.47-1.16.16-.39.32-.78.48-1.17.16-.38.32-.77.49-1.16.25-.58.51-1.16.77-1.74.26-.58.53-1.16.81-1.75.18-.38.37-.77.56-1.16.19-.39.39-.78.58-1.16.2-.39.4-.78.61-1.17.21-.38.41-.77.63-1.16.42-.78.87-1.55,1.32-2.32.46-.77.93-1.55,1.44-2.32.12-.2.25-.39.37-.58.13-.2.26-.39.38-.58.34-.52.7-1.03,1.06-1.54.36-.51.73-1.03,1.11-1.54.1-.14.21-.28.31-.42.01-.01.02-.02.02-.03.28-.36.55-.72.83-1.08.3-.39.61-.77.92-1.15.52-.64,1.05-1.27,1.6-1.9.22-.26.44-.51.67-.76.43-.49.89-.99,1.35-1.48.77-.82,1.58-1.64,2.42-2.46.2-.2.4-.4.61-.59.26-.25.52-.5.79-.75.53-.5,1.08-.99,1.64-1.49.84-.74,1.71-1.48,2.61-2.22.6-.49,1.22-.98,1.84-1.47.32-.24.64-.49.96-.73.29-.22.59-.45.9-.67.35-.27.71-.53,1.07-.79.67-.49,1.36-.97,2.06-1.45.7-.48,1.42-.96,2.15-1.43.73-.48,1.48-.96,2.25-1.43.95-.59,1.93-1.18,2.94-1.76.5-.3,1.01-.59,1.53-.88s1.04-.58,1.57-.87c1.17-.64,2.36-1.27,3.59-1.9.31-.15.62-.31.93-.47.31-.16.63-.32.95-.47,1.27-.63,2.56-1.25,3.9-1.86,1-.46,2.02-.92,3.06-1.38.03-.01.07-.03.1-.05,1.01-.44,2.04-.88,3.09-1.32.17-.07.33-.14.5-.22.16-.08.32-.17.48-.25.16-.09.33-.19.48-.28.16-.1.32-.2.48-.31.16-.1.31-.21.47-.33.15-.11.31-.23.46-.35.16-.12.31-.25.46-.38s.31-.26.46-.4c.3-.28.59-.56.89-.85.59-.61,1.18-1.26,1.75-1.96.43-.52.86-1.06,1.29-1.61.14-.19.29-.38.42-.58.29-.38.57-.76.86-1.15h0c.28-.41.57-.8.85-1.21s.56-.81.85-1.22c.29-.42.58-.84.87-1.26.43-.62.86-1.25,1.31-1.88h0c.29-.43.59-.85.89-1.27.29-.42.59-.83.9-1.24.16-.21.31-.42.47-.63.31-.41.61-.82.93-1.22h0c.32-.41.64-.8.97-1.19.16-.2.33-.4.49-.59.32-.39.66-.76,1-1.13h0c.34-.37.68-.73,1.04-1.08.46-.46.93-.91,1.41-1.34.24-.21.49-.42.73-.62.01-.01.03-.02.04-.04.27-.21.53-.42.8-.62.19-.14.37-.28.56-.42.03-.02.07-.05.1-.07.24-.16.48-.33.73-.48.05-.03.1-.06.15-.1.24-.15.48-.29.73-.43.27-.15.54-.3.82-.44.28-.14.56-.27.85-.4.57-.26,1.16-.48,1.77-.66.3-.09.6-.17.91-.25.62-.16,1.26-.28,1.92-.35.33-.04.66-.07,1-.09,1.17-.08,2.39-.03,3.67.15.12.02.23.03.35.02.04,0,.08,0,.12-.01.09,0,.17-.03.25-.05.16-.04.33-.11.49-.18.08-.04.17-.08.25-.13.09-.04.17-.09.25-.15.17-.11.33-.24.5-.37.09-.06.17-.13.25-.21.09-.08.17-.15.26-.23.08-.07.17-.16.25-.24.08-.09.16-.17.25-.26.17-.17.33-.35.49-.53.08-.1.16-.19.24-.28.17-.18.33-.37.48-.56h0c.16-.2.31-.39.46-.58h0c.16-.2.31-.39.44-.57.08-.09.14-.18.21-.27.14-.18.28-.36.4-.52.12-.14.23-.28.33-.41.08-.09.15-.18.22-.26h0c.12-.15.23-.27.32-.38.03-.03.05-.06.08-.08.12-.13.23-.23.33-.31.16-.12.31-.27.45-.45.05-.06.09-.13.13-.2.04-.07.09-.15.12-.23.04-.07.08-.15.11-.24.07-.16.14-.34.19-.52.02-.05.03-.1.04-.15.03-.08.05-.15.06-.23.02-.08.04-.15.05-.23.04-.17.07-.35.09-.53.04-.25.07-.52.08-.79.01-.1.01-.19.01-.29,0-.12.01-.24.01-.37v-.03c0-.47-.04-.94-.1-1.42-.01-.16-.04-.31-.07-.47-.02-.16-.06-.31-.09-.46-.03-.15-.06-.29-.11-.44-.04-.16-.08-.32-.14-.47-.04-.15-.1-.29-.15-.43-.1-.24-.21-.48-.33-.7-.12-.23-.25-.44-.39-.63-.07-.09-.15-.19-.23-.27-.07-.09-.15-.17-.24-.24-.08-.07-.17-.14-.26-.21-.2-.14-.4-.29-.6-.45-.4-.3-.79-.62-1.17-.97-.19-.16-.38-.33-.57-.52-.19-.17-.38-.36-.57-.55-.19-.19-.38-.38-.56-.58-.19-.2-.37-.4-.55-.61-.19-.2-.37-.41-.55-.63-.18-.21-.36-.43-.53-.65-.18-.22-.36-.45-.53-.68-.71-.92-1.39-1.9-2.05-2.94-.17-.26-.33-.52-.49-.78-.65-1.07-1.28-2.19-1.88-3.36-.16-.29-.31-.59-.45-.88-.19-.37-.37-.75-.55-1.13-.19-.38-.36-.77-.54-1.16-.18-.39-.35-.78-.52-1.18-.17-.39-.34-.8-.51-1.2-.14-.32-.27-.65-.4-.98-.2-.5-.39-.99-.58-1.5-.19-.5-.38-1-.56-1.52-.12-.31-.23-.63-.34-.95-.15-.42-.29-.84-.42-1.26-.11-.31-.2-.61-.3-.92-.14-.41-.27-.82-.39-1.23-.09-.3-.18-.6-.27-.9-.15-.51-.3-1.02-.45-1.54-.16-.57-.32-1.15-.47-1.73-.19-.73-.38-1.45-.55-2.19-.01-.01-.01-.02-.01-.03-.18-.72-.35-1.45-.51-2.18-.07-.28-.13-.56-.18-.83-.03-.12-.05-.24-.08-.36-.14-.65-.27-1.29-.4-1.94-.07-.35-.14-.7-.2-1.05-.03-.14-.05-.28-.08-.42-.11-.58-.21-1.16-.31-1.74,0-.08-.03-.15-.04-.23-.03-.18-.06-.35-.09-.53-.02-.13-.04-.26-.06-.39-.09-.56-.18-1.13-.26-1.69-.01-.09-.03-.18-.04-.27-.05-.36-.1-.71-.15-1.06-.09-.65-.17-1.3-.25-1.96-.06-.47-.11-.93-.16-1.4-.04-.34-.08-.68-.11-1.02-.05-.51-.1-1.03-.15-1.54-.05-.62-.1-1.24-.14-1.86-.03-.38-.06-.75-.08-1.13-.01-.17-.02-.34-.03-.51-.03-.51-.06-1.01-.08-1.51,0-.18-.01-.36-.02-.55-.02-.62-.04-1.24-.06-1.86-.22-10.52,1.17-19.98,4.49-25.98,4.45-8.12-3.28-21.75,5.89-28.81,29.03-22.3,19.08.5,64.29,2.78-.52-5.69,2.71-8.27,7.55-9.52.39-.1.8-.19,1.21-.28,2.26-.47,4.8-.7,7.44-.86.72-.05,1.45-.09,2.18-.12,1.7-.09,3.43-.16,5.12-.26.48-.03.96-.06,1.44-.09.71-.06,1.42-.12,2.11-.18,1.16-.12,2.28-.26,3.36-.45.64-.12,1.27-.25,1.87-.39,1-.25,1.94-.55,2.8-.92-.15-.21-.3-.43-.45-.64ZM495.88,1211.25s-.03-.01-.04-.04c.02.02.03.03.04.03h0Z"/>
  <path class="cls-12" d="M939.39,1290.33c-1.2.43-2.41.91-3.63,1.41,1.22-.51,2.43-.99,3.63-1.41Z"/>
  <path class="cls-12" d="M946.15,1288.32c-1.01.24-2.03.5-3.04.79,1.01-.3,2.02-.57,3.04-.79Z"/>
  <path class="cls-12" d="M950.7,1222.87c-.31.32-.62.65-.93,1h-.01c.31-.35.63-.69.94-1Z"/>
  <path class="cls-12" d="M953.94,1220.12c-.62.43-1.23.9-1.85,1.44.62-.55,1.24-1.02,1.85-1.44Z"/>
  <path class="cls-12" d="M952.87,1287.32c-.28.02-.55.04-.83.06-.3.03-.61.06-.91.09.3-.04.61-.07.91-.1.28-.03.56-.04.83-.05Z"/>
  <path class="cls-12" d="M974.55,1215.85c-.51-.69-.99-1.43-1.47-2.19.49.77.98,1.5,1.47,2.19Z"/>
  <path class="cls-12" d="M976.24,1217.92h0c-.18-.19-.36-.39-.53-.6.18.21.36.41.54.6Z"/>
  <path class="cls-12" d="M1010.28,1289.56c-.3-.19-.56-.35-.78-.5.22.14.48.31.78.5Z"/>
  <path class="cls-12" d="M1018.48,1319.52c-1.21-.5-2.41-1-3.6-1.45,1.19.45,2.39.94,3.6,1.45Z"/>
  <path class="cls-12" d="M1041.82,1326.43c-.65-.37-1.29-.71-1.93-1.02.64.3,1.28.65,1.93,1.02Z"/>
  <path class="cls-12" d="M1052.34,1332.99c-1.21-.74-2.36-1.47-3.45-2.17,1.09.69,2.24,1.42,3.45,2.17Z"/>
  <path class="cls-12" d="M1153.51,970.42l-.72-.18h0c.24.05.48.11.72.18Z"/>
  <path class="cls-12" d="M1161.19,973.35c-.64-.35-1.32-.68-2.05-1.01.73.32,1.41.66,2.05,1.01Z"/>
  <path class="cls-12" d="M1271.3,1010.72c-2.34.4-4.79.8-7.32,1.19,2.53-.4,4.98-.8,7.32-1.19Z"/>
  <path class="cls-12" d="M1288.22,1098.91c-.71.3-1.42.6-2.13.9h0c.71-.31,1.41-.61,2.13-.9Z"/>
  <path class="cls-12" d="M1315.25,1090.8c-1.74.29-3.47.62-5.19,1,1.72-.38,3.46-.72,5.19-1Z"/>
  <path class="cls-12" d="M1426.89,1057.6l-84.47,33.09c-.52.21-1.22.28-1.96.28.74,0,1.43-.08,1.96-.29l84.47-33.08Z"/>
  <path class="cls-12" d="M1539.45,969.47c-.57.88-1.17,1.76-1.81,2.63.63-.87,1.23-1.74,1.81-2.63Z"/>
  <path class="cls-12" d="M1345.4,882.17c-1.34.62-2.64,1.24-3.9,1.86,1.27-.63,2.56-1.25,3.9-1.86Z"/>
  <path class="cls-12" d="M1352.15,879.2c-.17.09-.33.16-.5.23-1.05.44-2.08.88-3.09,1.31,1.01-.44,2.04-.88,3.09-1.32.17-.07.33-.14.5-.22Z"/>
  <path class="cls-1" d="M797.17,1367.45c-2.44,10.96-10.62,15.13-20.8,26.36l-57.83,63.67c-5.28,5.79-14.74,27.97-24.97,10.57-3.72-6.34,7.68-26.69-4-30.92-21.02-7.68-44.43-1.95-63.45,4.17-2.39,23.74-2.67,49.1,8.23,72.9,2.28,4.95,10.79,2.39,13.79,3.45,2.34-5.78,6.23-15.24,15.85-15.4,6.73-.06,11.12,7.45,10.79,11.84-.34,4.51-9.24,6.4-10.46,9.73-1.72,9.29,1.67,22.53,10.23,27.7l5.06,32.75c-3.11-2.11-6.45-3.95-10.01-5.34-9.95-14.4-19.63-33.09-38.53-33.36-.78-5.01-2.62-10.57-6.18-12.96-4.05-2.78-8.28-2.11-11.95-2.5l-14.63-1.5c-10.95-1.06-23.41-3.51-23.63-16.13-1.78-1.61-3.5-3.34-5.06-5.12-13.62.23-14.24-12.79-16.85-23.19-1.78-6.95-6.12-12.9-6.34-20.57-19.69-6.45-14.68-34.26-14.96-52.16l-.44-31.31c-10.9-11.23-4.9-27.03-5.06-41.04l-.67-58.95c4.39-2.22,5.95-7,5.84-11.67,12.29,6.5,28.97,8.23,37.92,19.96,1.13,0,2.27,0,3.4.02,1.61.02,3.21.09,4.81.2.8.04,1.6.1,2.4.17,1.9.15,3.8.36,5.69.61,2.11.28,4.28.28,6.39.72,1.73.28,4.06-.55,5.67.17h.01c1.61.73,3.24,1.39,4.89,1.99,1.1.4,2.22.77,3.34,1.11,1.12.34,2.25.66,3.39.95s2.28.55,3.43.79,2.3.46,3.46.65c2.89.48,5.81.81,8.73,1.02,1.8.13,3.61-.15,5.42-.48.72-.13,1.44-.27,2.16-.39.48-.08.96-.16,1.43-.21.18-.02.36-.04.54-.06.18-.02.36-.04.54-.04.09-.01.18-.02.27-.02.09-.01.19-.01.28-.01.06-.01.12-.01.18-.01.18-.01.35-.01.53-.01.29.18.57.4.85.66.14.12.28.26.41.4,1.02,1.05,1.96,2.42,3,3.5.07.07.14.14.21.21.21.2.43.39.65.57.15.11.3.22.45.32.15.1.31.18.47.26.16.08.32.14.49.19.08.03.17.05.25.07,3.48.81,6.95,1.95,10.44,3.23,1,.36,2,.74,3,1.13,5.51,2.12,11.09,4.48,16.88,6.41,1.05.35,2.11.69,3.18,1.01,5.34,1.59,10.86,2.72,16.66,2.9l76.24,2.05h0c-.17.33-.29.62-.38.89-.99,3.35,1.94-2.34,4.45-1.78,3.28.78,9.67,5.07,12.89,6.01.46.14.9.33,1.34.57.44.24.88.51,1.31.82.21.15.42.3.64.47.21.16.42.32.63.49.22.17.43.34.64.51.11.08.21.17.32.25.21.17.42.34.63.5.11.08.22.17.32.25.53.4,1.07.77,1.62,1.09.99.58,2.03.96,3.12.95,2.11,12.67-6.45,26.24.44,37.92Z"/>
  <path class="cls-12" d="M1598.04,490.77c-2.9.72-6.95-.05-9.88-.5.02.14.04.28.04.41-.02-.13-.03-.26-.05-.39-3.7-.51-9.55.75-12.76-.93.05,1.2.19,2.41.43,3.58-.25-1.16-.4-2.36-.45-3.56-60.95-28.92-48.66-41.15-111-44.54,0,0,0,.01,0,.01l-27.55-1.49c-21.82-1.19-46.8,3.19-66.06-4.17l-.03-.02c-29.8-11.35-61.78-15.24-90.08-.56,4.62,12.07-8.12,22.25-9.9,36.21-.08.58-.13,1.2-.17,1.84-.3,5.19.63,12.08,2.5,19.2.26.98.54,1.97.83,2.96.1.34.2.67.3,1,.31.99.63,1.98.97,2.96.23.65.46,1.31.7,1.96.24.65.49,1.3.74,1.94.13.33.26.65.39.97.26.64.53,1.27.8,1.9.14.31.28.63.42.94.28.62.57,1.23.86,1.84.3.6.59,1.2.9,1.79,1.22,2.37,2.54,4.59,3.94,6.59.35.5.7.98,1.06,1.46.54.71,1.09,1.38,1.65,2.02.38.42.75.83,1.14,1.23.38.39.77.76,1.16,1.12.58.53,1.18,1.02,1.78,1.46,1.21.89,2.45,1.6,3.72,2.09,22.97,8.84,42.76,8.06,50.6,35.65,1.09,3.83,4.81,9.63,9.7,14.51.51.51,1.04,1.02,1.58,1.51.81.73,1.64,1.44,2.49,2.1.57.44,1.15.86,1.74,1.26,1.16.8,2.36,1.51,3.57,2.11.61.3,1.22.56,1.83.8.68-.75,1.37-1.46,2.06-2.16.71-.71,1.42-1.39,2.15-2.04.73-.66,1.47-1.29,2.21-1.89.74-.6,1.48-1.17,2.23-1.71,2.26-1.65,4.59-3.09,6.99-4.34,1.06-.56,2.14-1.09,3.23-1.58.62-.28,1.25-.55,1.88-.81.51-.22,1.03-.42,1.56-.62,1.04-.41,2.09-.78,3.15-1.13.43-.14.85-.27,1.28-.41,1.71-.53,3.43-1,5.18-1.42.87-.21,1.74-.41,2.62-.59,15.39-3.24,31.86-2.87,46.88-4.54,28.47-3.17,43.43-.89,66.67,16.07,2.17,1.59,4.53,3.02,7.03,4.34,3.75,1.98,7.82,3.73,12.01,5.45,2.8,1.14,5.65,2.27,8.5,3.45,1.43.59,2.86,1.19,4.28,1.81.36.15.71.31,1.06.47.71.31,1.42.63,2.12.96.71.32,1.41.66,2.11,1,.7.34,1.39.68,2.08,1.04.69.36,1.37.72,2.05,1.09,1.02.55,2.03,1.13,3.02,1.74.33.2.66.41.99.61.65.41,1.3.83,1.94,1.27.96.65,1.9,1.33,2.82,2.04.61.48,1.22.96,1.81,1.46.89.75,1.76,1.53,2.6,2.35,2.53,2.46,4.82,5.23,6.81,8.4,6.67-3.45,5.67-8.67,5.61-11.68,3.01-.5,11.07-4.78,12.35-1.11.3.87.64,1.71,1.01,2.5.15.32.3.64.47.95.34.67.72,1.3,1.12,1.89.2.3.41.59.63.88.72.95,1.52,1.78,2.39,2.49.29.23.58.45.88.66h.01c.3.21.61.4.93.57.64.36,1.31.66,2.01.89.17.06.35.11.53.16t.02.01c.54.15,1.1.26,1.68.34.64.08,1.31.12,2,.11.83-.01,1.63-.05,2.41-.11.59-.05,1.16-.11,1.72-.19.55-.08,1.1-.18,1.63-.28.36-.07.71-.15,1.05-.23.69-.17,1.36-.35,2.01-.56.98-.32,1.9-.68,2.79-1.09.29-.13.59-.27.87-.42.57-.29,1.13-.6,1.67-.92,1.61-.97,3.07-2.09,4.41-3.31.44-.4.88-.82,1.3-1.25,8.81-8.97,12.11-22.12,19.95-23.5,11.9-2.11,20.86.5,25.03,7.12,14.4,22.58-4.12,35.98-5.01,44.6-2.5,25.3,28.81-15.46,49.16-6.84,8.51,3.61,14.16,7.13,17.79,10.67.13.12.25.24.37.37l.36.36c.26.28.51.55.75.83.24.27.46.55.68.83.21.27.42.54.61.82.19.28.37.55.55.83.83,1.33,1.43,2.68,1.83,4.03.14.48.26.97.36,1.46.05.26.09.51.13.76.06.35.1.71.13,1.07.16,1.81.06,3.64-.22,5.52-.09.64-.21,1.28-.34,1.93-.13.66-.27,1.32-.43,1.98h0c-.27,1.18-.59,2.38-.93,3.6h0c-.16.61-.33,1.23-.51,1.85-.09.32-.17.63-.26.95-.17.63-.34,1.26-.51,1.9-.17.64-.34,1.29-.5,1.94-.16.66-.32,1.32-.47,1.99-.15.67-.29,1.35-.42,2.03-.96,5.09-1.33,10.6.02,16.69.11.51.24,1.03.37,1.55.07.26.14.52.22.78.13.46.28.92.43,1.39.19.6.41,1.2.64,1.81.2.54.42,1.08.66,1.63,1.33,3.1,3.13,6.35,5.54,9.75.15.21.31.43.46.64h0c-.86.38-1.81.68-2.81.92-.6.14-1.23.27-1.87.39-1.08.19-2.2.33-3.36.45-.69.06-1.4.12-2.11.18-.48.03-.96.06-1.44.09-1.69.1-3.42.17-5.12.26-.73.03-1.46.07-2.18.12-2.64.16-5.18.39-7.44.86-.41.09-.82.18-1.21.28-4.84,1.25-8.07,3.83-7.55,9.52-45.21-2.28-35.26-25.08-64.29-2.78-9.17,7.06-1.44,20.69-5.89,28.81-3.32,6-4.71,15.46-4.49,25.98.02.62.04,1.24.06,1.86,0,.19.02.37.02.55.02.5.05,1,.08,1.51,0,.17.02.34.03.51.02.38.05.75.08,1.13.04.62.09,1.24.14,1.86.05.51.1,1.03.15,1.54.03.34.07.68.11,1.02.05.47.1.93.16,1.4.08.66.16,1.31.25,1.96.05.35.1.7.15,1.06.01.09.03.18.04.27.08.56.17,1.13.26,1.69.02.13.04.26.06.39.03.18.06.35.09.53.01.08.03.15.04.23.1.58.2,1.16.31,1.74.03.14.05.28.08.42.06.35.13.7.2,1.05.13.65.26,1.29.4,1.94.03.12.05.24.08.36.05.27.11.55.18.83.16.73.33,1.46.51,2.18,0,.01,0,.02.01.03.17.74.36,1.46.55,2.19.15.58.31,1.16.47,1.73.15.52.3,1.03.45,1.54.09.3.18.6.27.9.12.41.25.82.39,1.23.1.31.19.61.3.92.13.42.27.84.42,1.26.11.32.22.64.34.95.18.52.37,1.02.56,1.52.19.51.38,1,.58,1.5.13.33.26.66.4.98.17.4.34.81.51,1.2.17.4.34.79.52,1.18.18.39.35.78.54,1.16.18.38.36.76.55,1.13.14.29.29.59.45.88.6,1.17,1.23,2.29,1.88,3.36.16.26.32.52.49.78.66,1.04,1.34,2.02,2.05,2.94.17.23.35.46.53.68.17.22.35.44.53.65.18.22.36.43.55.63.18.21.36.41.55.61.18.2.37.39.56.58.19.19.38.38.57.55.19.18.38.35.57.52.38.35.77.67,1.17.97.2.15.4.3.6.44.09.06.18.14.26.22.09.07.17.15.24.24.08.08.16.18.23.27.14.19.27.4.39.63.13.22.24.45.33.7.05.14.11.28.15.43.06.15.1.31.14.47.05.15.08.29.11.44.03.15.07.3.09.46.03.16.06.31.07.47.07.47.1.95.1,1.42v.03c0,.13-.01.25-.01.37,0,.1,0,.19-.01.29,0,.27-.04.54-.08.79-.02.18-.05.36-.09.53,0,.08-.03.15-.05.23,0,.08-.03.15-.06.23,0,.05-.02.1-.04.15-.05.18-.12.36-.19.52-.03.09-.07.17-.11.24-.03.08-.08.16-.12.23-.04.07-.08.14-.13.2-.13.19-.28.34-.44.46-.1.08-.21.18-.34.3-.03.02-.05.05-.08.08-.09.11-.2.23-.32.37h0c-.07.09-.14.18-.22.27-.1.13-.21.27-.33.41-.12.16-.26.34-.4.52-.07.09-.13.18-.21.27-.13.18-.28.37-.44.56h0c-.15.2-.3.39-.46.58h0c-.15.2-.31.39-.48.57-.08.09-.16.18-.24.28-.16.18-.32.36-.49.53-.09.09-.17.17-.25.26-.08.08-.17.17-.25.24-.09.08-.17.15-.26.23-.08.08-.16.15-.25.21-.17.13-.33.26-.5.37-.08.06-.16.11-.25.15-.08.05-.17.09-.25.13-.16.07-.33.14-.49.18-.08.02-.16.04-.25.05-.04.01-.08.02-.12.01-.11.02-.23,0-.35-.01-1.28-.18-2.51-.23-3.67-.16-.34.02-.67.05-1,.09-.66.08-1.29.2-1.92.35-.31.08-.61.16-.91.25-.61.19-1.2.41-1.77.66-.29.13-.57.26-.85.4-.28.14-.55.29-.82.44-.25.14-.49.28-.73.43-.05.04-.1.07-.15.1-.25.15-.49.32-.73.48-.03.02-.07.05-.1.07-.19.14-.37.28-.56.42-.27.2-.53.41-.8.62,0,.02-.03.03-.04.04-.24.2-.49.41-.73.62-.48.43-.95.88-1.41,1.34-.36.35-.7.71-1.04,1.07h0c-.34.38-.68.75-1,1.14-.16.19-.33.39-.49.59-.33.39-.65.78-.97,1.18h0c-.32.41-.62.82-.93,1.23-.16.21-.31.42-.47.63-.31.41-.61.82-.9,1.24-.3.42-.6.84-.89,1.26h0c-.45.64-.88,1.27-1.31,1.89-.29.42-.58.84-.87,1.26-.29.41-.57.81-.85,1.22s-.57.8-.85,1.2h0c-.29.4-.57.78-.86,1.16-.13.2-.28.39-.42.58-.43.55-.86,1.09-1.29,1.61-.57.7-1.16,1.35-1.75,1.96-.3.29-.59.57-.89.85-.15.14-.31.27-.46.4s-.3.26-.46.38c-.15.12-.31.24-.46.35-.16.12-.31.23-.47.33-.16.11-.32.21-.48.31-.15.09-.32.19-.48.28-.16.08-.32.17-.48.25-.17.09-.33.16-.5.23-1.05.44-2.08.88-3.09,1.31-.03.02-.07.04-.1.05-1.04.46-2.06.92-3.06,1.38-1.34.62-2.64,1.24-3.9,1.86-.32.15-.64.31-.95.47-.31.16-.62.32-.93.47-1.23.63-2.42,1.26-3.59,1.9-.53.29-1.05.58-1.57.87s-1.03.58-1.53.88c-1.01.58-1.99,1.17-2.94,1.76-.77.47-1.52.95-2.25,1.43-.73.47-1.45.95-2.15,1.43-.7.48-1.39.96-2.06,1.45-.36.26-.72.52-1.07.79-.31.22-.61.45-.9.67-.32.24-.64.49-.96.73-.62.49-1.24.98-1.84,1.47-.9.74-1.77,1.48-2.61,2.22-.56.5-1.11.99-1.64,1.49-.27.25-.53.5-.79.75-.21.19-.41.39-.61.59-.84.82-1.65,1.64-2.42,2.46-.46.49-.91.98-1.35,1.48-.23.25-.45.5-.67.76-.55.63-1.08,1.26-1.6,1.9-.31.38-.62.76-.92,1.15-.28.36-.55.72-.83,1.08,0,0,0,.02-.02.03-.1.14-.21.28-.31.42-.38.51-.75,1.03-1.11,1.54-.36.51-.72,1.02-1.06,1.54-.12.19-.25.38-.38.58-.12.19-.25.38-.37.58-.5.77-.98,1.54-1.44,2.32-.45.77-.9,1.54-1.32,2.32-.22.39-.42.78-.63,1.16-.21.39-.41.78-.61,1.17-.19.38-.39.77-.58,1.16-.19.39-.38.78-.56,1.16-.28.59-.55,1.17-.81,1.75-.26.58-.52,1.16-.77,1.74-.17.39-.33.78-.49,1.16-.16.39-.32.78-.48,1.17-.16.38-.31.77-.47,1.16-.31.77-.6,1.54-.89,2.31-.24.64-.48,1.28-.71,1.92-.18.51-.37,1.03-.55,1.54-.27.77-.54,1.53-.8,2.3-.27.76-.53,1.52-.79,2.28-.06.19-.13.38-.19.57-.28.82-.56,1.64-.84,2.45-.04.13-.09.25-.13.38-.47,1.38-.94,2.75-1.43,4.11-.04.12-.09.25-.13.37-.27.74-.54,1.48-.81,2.21-.53,1.42-1.07,2.82-1.65,4.21-.21.52-.43,1.05-.67,1.56-.07.17-.14.34-.22.51-.18.44-.38.87-.58,1.29-.21.47-.43.94-.67,1.41-.22.47-.45.93-.69,1.4-.34.66-.68,1.32-1.06,1.97-.02.04-.04.07-.06.11-.11.23-.24.45-.37.67-.09.16-.19.33-.29.49,0,.01,0,.02-.02.03-.09.18-.19.35-.3.52-.22.37-.44.74-.68,1.1-.11.19-.23.38-.35.57-.57.88-1.17,1.76-1.81,2.63-.32.44-.65.87-.98,1.3h0c-1.93,2.5-3.96,4.86-6.06,7.13-.53.56-1.05,1.12-1.58,1.66t-.02.02c-.45.47-.9.93-1.35,1.39-.61.63-1.24,1.26-1.88,1.88-.55.54-1.1,1.07-1.65,1.6-1.1,1.07-2.21,2.11-3.33,3.15-.57.52-1.13,1.05-1.7,1.56-1.12,1.03-2.26,2.06-3.39,3.09-.64.58-1.27,1.16-1.9,1.73-.78.71-1.56,1.42-2.33,2.13-.78.72-1.56,1.43-2.33,2.15-.07.07-.15.14-.22.2-.74.69-1.47,1.39-2.2,2.09-.72.7-1.45,1.4-2.17,2.11-.57.56-1.13,1.13-1.69,1.69-.56.58-1.12,1.15-1.67,1.73-.38.4-.76.8-1.14,1.21-.38.41-.76.82-1.13,1.23-.37.41-.74.83-1.11,1.25s-.74.84-1.1,1.27c-.31.35-.61.71-.91,1.08-.35.42-.7.84-1.04,1.27-.3.37-.6.75-.89,1.13l-.63.81c-.2.27-.41.54-.61.82-.04.04-.06.07-.08.11-.4.53-.79,1.06-1.17,1.6-.33.46-.66.93-.98,1.41-.13.19-.25.37-.37.55-.39.57-.77,1.15-1.14,1.74-.03.04-.05.08-.08.13-.36.57-.72,1.15-1.07,1.74-.15.25-.3.5-.46.76-.35.61-.7,1.23-1.05,1.86-.21.39-.46.75-.75,1.08-.19.23-.39.44-.61.65-.2.19-.41.37-.64.54-.27.21-.56.41-.86.6-.12.08-.25.16-.37.23-.34.2-.7.39-1.08.57-.23.12-.47.22-.71.33-.31.14-.64.27-.97.39-.33.13-.67.25-1.02.37-.3.1-.6.19-.91.29-.4.13-.8.25-1.22.36-.36.11-.73.21-1.1.31-.37.09-.74.19-1.12.29-.37.09-.75.19-1.13.29-.19.04-.37.09-.56.14-.34.08-.68.17-1.02.26-.22.06-.45.12-.67.18-.93.24-1.86.5-2.75.78-.21.06-.42.13-.63.2-.32.1-.63.21-.94.33h-.01c-.5.19-.99.38-1.47.59-.16.07-.32.14-.47.22-.15.07-.3.14-.45.22-.32.16-.63.33-.92.51-.12.07-.24.15-.36.23-.27.17-.52.35-.77.55-.13.1-.25.2-.36.3-.12.09-.23.19-.33.29-.11.11-.22.22-.33.34-.08.08-.15.16-.21.24-.1.11-.19.22-.27.33-.06.08-.12.16-.18.24-.06.08-.12.17-.17.25,0,.01,0,.01,0,.02-.07.11-.13.22-.2.33-.05.08-.09.17-.13.26-.07.12-.13.25-.18.38-.05.12-.1.24-.15.37,0,.02,0,.04-.02.06-.02.06-.04.13-.06.2-.02.06-.04.13-.06.2s-.04.14-.06.2c-.02.07-.04.14-.05.21-.04.15-.07.3-.09.45-.05.31-.08.62-.1.95,18.12-5.4,41.54-6.62,59.39-18.24,41.09-26.75,75.96-59.89,111.49-93.15,11.57-10.79,14.35-31.31,27.58-39.04,15.24-8.89,24.36-17.57,34.7-27.36,16.58-15.73,24.53-36.09,36.32-58.39,12.9-24.24,29.58-47.93,24.24-75.12-2.61-13.24,12.46-30.42,11.01-44.66-46.15-76.96,9.29-69.01-51.99-129.51-21.69-21.36-38.65-41.87-64.5-54.78h-.01c-15.34-7.65-29.93-19-49.95-13.8h0s0,.01.02.01h-.02ZM1603.24,506.09"/>
  <path class="cls-10" d="M1147.12,1389.58l-16.4.61c-6.29-10-19.02-11.62-28.2-16.96l-26.47-15.57c-15.29-8.95-29.47-19.07-44.71-28.02l-.33-6.62c2.03.06,3.89.42,5.71,1.05.42.15.85.31,1.27.48.32.13.63.27.95.41.32.14.64.29.95.45.64.3,1.28.65,1.93,1.02.21.12.43.24.65.37.66.38,1.33.79,2.02,1.22.42.26.84.53,1.27.79.03.02.07.04.1.07.24.15.47.3.71.45.75.48,1.52.97,2.32,1.49,1.09.69,2.24,1.42,3.45,2.17.91.56,1.86,1.13,2.86,1.71,1.79-1.97,2.33-4.19,1.9-6.56-.04-.21-.08-.43-.14-.64-.02-.07-.03-.14-.06-.21-.05-.23-.13-.47-.21-.7-.06-.2-.14-.4-.22-.6,0-.03-.02-.05-.03-.07-.05-.15-.11-.29-.18-.43-.06-.15-.13-.29-.2-.43-.03-.09-.08-.18-.13-.27-.02-.05-.04-.09-.07-.13-.07-.16-.15-.32-.24-.47-.12-.22-.24-.44-.38-.67-.3-.51-.64-1.02-1.01-1.54-.12-.18-.26-.37-.41-.56-.16-.23-.35-.47-.54-.71-.74-.95-1.58-1.9-2.49-2.86-.29-.31-.59-.61-.9-.92-.29-.3-.59-.59-.9-.89-.22-.21-.45-.43-.68-.64-.41-.39-.84-.78-1.27-1.16-.34-.31-.69-.62-1.05-.92-.57-.5-1.16-1-1.75-1.48-.43-.36-.87-.71-1.31-1.06-.55-.44-1.1-.87-1.67-1.3-.15-.12-.31-.24-.47-.36-.72-.55-1.45-1.1-2.19-1.64-1.52-1.11-3.07-2.2-4.62-3.25-.72-.5-1.45-.99-2.17-1.47-.76-.5-1.51-1-2.27-1.49-2.4-1.55-4.75-3.02-6.96-4.37-.56-.34-1.12-.68-1.66-1.01-.17-.1-.34-.2-.5-.3-.25-.15-.5-.3-.74-.44-4.13-2.48-7.52-4.42-9.4-5.59-.3-.19-.56-.35-.78-.5-.22-.14-.4-.27-.53-.37-.07-.05-.12-.1-.17-.14-.09-.08-.14-.14-.14-.18,0-.02.01-.03.03-.04s.04-.01.07-.01h.12c-.89-4.12-2.67-8.94-6.95-13.12h0s-7.12-7.01-7.12-7.01l-45.04-44.32h-.01c.31-.35.63-.69.94-1,.15-.15.31-.31.46-.46.31-.31.62-.59.93-.85.62-.55,1.24-1.02,1.85-1.44.63-.43,1.25-.81,1.87-1.12.31-.16.62-.31.92-.45.16-.07.31-.14.47-.2.3-.12.61-.24.92-.35.34-.12.69-.23,1.04-.32.26-.08.53-.14.8-.2.08-.02.15-.04.23-.05.23-.05.46-.09.69-.13.2-.04.41-.07.61-.09.25-.04.5-.07.76-.09.38-.04.76-.07,1.14-.08.18-.01.36-.02.54-.01.95-.03,1.89,0,2.81.07.76.05,1.51.12,2.25.2.25.02.5.05.74.08.49.06.97.12,1.45.17.77.09,1.54.18,2.3.24.27.02.53.05.8.06.32.03.65.04.98.05.28.01.56.02.84.02h.14c1.34,0,2.77.39,4.05.28-1.61,4.05.23,8.5,4.01,10.06,2.67,1.11,5.56,1.06,8.06.61,7.56,13.46,26.75,12.85,39.04,22.41,20.74,16.3,34.53,38.99,59.56,44.55-4.4,5.39-12.85,9.51-13.41,15.01-.94,9.12,5.18,16.63,11.63,21.74l43.26,33.98c8.29,6.56,13.62,14.52,14.68,23.02Z"/>
  <path class="cls-6" d="M1213.58,1412.88c-22.69,0-32.48-24.52-66.45-23.3-1.06-8.51-6.4-16.46-14.68-23.02l-43.26-33.98c-6.45-5.12-12.57-12.62-11.62-21.74.56-5.51,9.01-9.62,13.4-15.01,8.79,1.95,22.74-2.11,23.36,10.29.17,3.23-1,10.79,5.45,11.68,11.07,1.45,19.8-.28,28.14.33,17.35,11.34,35.59,16.52,49.55,31.59,4.78,21.8,21.41,40.65,16.13,63.17Z"/>
  <path class="cls-2" d="M1427.39,1077.28c-15.57,1.23-29.25-6.84-47.32,6.23-11.07,8.06-27.58,16.4-42.99,16.91-5.62.22-1.33-8.29-.17-9.79.94.14,2.31.34,3.55.34.74,0,1.43-.08,1.96-.29l84.47-33.08c-.17,6.56-.05,13.12.5,19.68Z"/>
  <path class="cls-10" d="M1231.15,1424.73c-4.5-4.28-17.57-1.11-17.57-11.84,5.28-22.52-11.34-41.37-16.13-63.17,2.11,2.34,24.08-10.45,33.7,75.02Z"/>
  <path class="cls-11" d="M1436.68,1056.87c-.26-.41-.38-.81-.38-1.2,0-.09.01-.18.02-.27.03-.19.08-.39.16-.57.06-.13.13-.27.21-.4.11-.18.24-.35.4-.51.07-.07.14-.15.22-.22.06-.06.12-.12.19-.18.45-.4,1-.75,1.59-1.05.21-.1.42-.19.63-.28.21-.09.42-.17.64-.25h0c.12-.04.25-.08.38-.11.25-.08.5-.14.74-.18.12-.03.24-.05.35-.06.45-.06.86-.06,1.18,0,2.39,4.23-3.62,4.39-6.34,5.28Z"/>
  <path class="cls-5" d="M931.97,1049.42h0c-.73-.14-1.51,0-2.31.24.79-.25,1.56-.39,2.31-.24Z"/>
  <path class="cls-6" d="M1019.89,834.61c-.45,6.84,4.45,8.59,4.39,15.43-3.06-3.06,2.71,20.36.99,22.81-3.06,4.34-11.95-3.44-12.01.34l-4.05,32.32c-18.02,6.39-20.02,29.19-12.4,45.04-2.89,6.12-1.56,17.35-6.12,22.52,0,.01,0,.01,0,.02-.4.6-.8,1.2-1.21,1.79-.73,1.08-1.48,2.13-2.23,3.16-1.3,1.78-2.61,3.5-3.93,5.14-.31.39-.63.78-.95,1.16-.28.35-.57.7-.87,1.05-.33.4-.67.81-1.01,1.2-.32.37-.63.74-.95,1.1h0c-.85.98-1.69,1.92-2.53,2.84-.41.46-.84.92-1.27,1.38-1.05,1.12-2.11,2.21-3.17,3.28-1.06,1.07-2.1,2.1-3.15,3.11h0c-1.26,1.2-2.5,2.37-3.74,3.52-1.24,1.14-2.47,2.24-3.69,3.31-.8.71-1.6,1.41-2.39,2.11h-.01c-1.16,1.02-2.3,2-3.42,2.96-.82.72-1.64,1.42-2.44,2.1-.68.6-1.36,1.19-2.03,1.77-1.47,1.28-2.9,2.54-4.26,3.79-.66.6-1.31,1.2-1.93,1.8-.48.45-.95.91-1.4,1.36-.16.15-.32.31-.47.47-1.03,1.02-2,2.04-2.91,3.07-.42.48-.84.95-1.24,1.44-1.54,1.85-2.9,3.74-4.02,5.71-.28.5-.56,1-.8,1.51-.12.2-.22.4-.3.61-.28.57-.53,1.14-.76,1.72-.53,1.35-.96,2.74-1.27,4.2-.08.36-.15.72-.21,1.09s-.12.75-.16,1.12c-.04.3-.07.6-.1.91-.03.3-.05.61-.07.92-.02.32-.03.64-.04.96v.15c-.05,1.44.03,2.94.23,4.52-.11-.02-.21-.04-.32-.04-.11-.01-.22-.02-.34-.02s-.25.01-.37.02c-.08.01-.17.02-.26.04-.04,0-.09,0-.14.02-.04,0-.09.02-.14.03-.1.02-.21.04-.31.07-.14.03-.29.07-.43.12-.37.11-.74.25-1.12.38-.54.2-1.08.4-1.61.54-.34.09-.67.15-1,.18h-.02c-5.62.44-11.68,2-19.02-1.11-13.85-5.9-12.9-56.45-22.3-68.79-34.98,21.3-65.4,44.54-93.64,69.23-14.96-5.45-16.85-23.52-20.69-37.59-10.85,4.78-20.41-52.11-12.07-58.95,5.62-4.67,12.4,4.9,19.58,6.46,16.18,3.39,27.52-16.19,42.98-18.08,22.36-2.78,42.93-2.78,61.17-13.29-.33-1.94-.61-4.06-.61-6,.06-12.85-3.23-100.93,5.89-94.82,9.96-51.55,8.4-107.99,31.37-158.65,4.84-10.62,35.14-7.01,29.92-30.86-2.78-12.68,1.11-28.09,5.11-38.93,3.12-8.45,7.01-18.07,15.63-20.02,8.56-1.89,26.25-5.78,26.13,3.78-.27,22.75,6.4,39.48,9.4,57.11,11.07,64.56,19.24,128.74,15.13,194.36Z"/>
  <path class="cls-5" d="M960.57,1055.31l-3.4,17.14h-.01s3.39-17.13,3.39-17.13c.01,0,.01-.01.02-.01Z"/>
  <path class="cls-5" d="M972.96,1039.71c1.24-2.3,2.45-4.66,3.7-7.03-1.24,2.37-2.44,4.73-3.7,7.03Z"/>
  <path class="cls-5" d="M999.86,1001.41c-.3.58-.64,1.15-1,1.72.35-.57.68-1.15,1-1.72Z"/>
  <path class="cls-5" d="M1001.9,997c2.16-5.72,2.6-11.78.75-18.14v-.02h0c1.86,6.38,1.41,12.44-.76,18.16Z"/>
  <path class="cls-5" d="M1025.27,963.91c-5.41.98-10.71,1.95-15.67,3.16h0c4.96-1.22,10.26-2.19,15.67-3.16Z"/>
  <path class="cls-5" d="M1033.65,962.39c3.83-.72,7.67-1.5,11.45-2.41-3.78.92-7.62,1.69-11.45,2.41Z"/>
  <path class="cls-1" d="M1539.78,1180.99c-6.18,72.13,5.11,75.08-25.08,110.22-28.59,33.2-42.49,73.02-108.44,103.43-34.59,16.02-66.56,44.77-107.55,45.38-25.91.39-50.38.78-67.56-15.29-9.62-85.47-31.59-72.68-33.7-75.02-13.96-15.07-32.2-20.24-49.55-31.58-7.17-4.68-15.85-5.79-22.3-11.52l-11.29-.5c-.61-12.4-14.57-8.34-23.35-10.28-25.03-5.56-38.82-28.25-59.56-44.55-12.29-9.56-31.48-8.95-39.04-22.41-1.06-1.89-.06-5.5-1.5-7.62-2.34-3.5-6.84-3.5-10.57-3.05-1.28.11-2.71-.28-4.05-.28h0c-.18-.19-.36-.39-.53-.6-.2-.23-.39-.47-.58-.71-.19-.25-.38-.5-.57-.76-.51-.69-.99-1.43-1.47-2.19-.31-.5-.62-1.02-.93-1.54-.18-.29-.35-.59-.53-.89-.72-1.19-1.44-2.41-2.18-3.57-.19-.29-.38-.58-.57-.87,0-.01-.02-.03-.03-.04-.27-.4-.55-.8-.83-1.18-.03-.04-.05-.07-.08-.1-.18-.25-.37-.5-.57-.74-.22-.29-.45-.57-.69-.84-.3-.35-.62-.69-.94-1-.2-.2-.4-.39-.6-.56-.23-.2-.46-.39-.69-.57-.16-.13-.32-.24-.48-.35-.24-.17-.48-.33-.73-.47-.22-.14-.45-.26-.68-.37-4.31-2.1-8.7-4.28-13.09-6.58-1.39-.73-2.79-1.47-4.18-2.22h0c-1.07-.58-2.13-1.17-3.19-1.77-1.16-.64-2.33-1.31-3.48-1.99-.96-.56-1.92-1.13-2.87-1.71-.87-.53-1.74-1.06-2.6-1.61-.79-.5-1.58-1.01-2.36-1.52-1.7-1.12-3.39-2.27-5.03-3.46-.35-.24-.69-.49-1.02-.74-.1-.06-.19-.13-.28-.21-.54-.39-1.08-.79-1.61-1.2-1.1-.84-2.18-1.69-3.24-2.57-.35-.29-.7-.58-1.05-.88-.35-.29-.69-.58-1.04-.89-.34-.29-.68-.59-1.02-.9-.19-.16-.38-.34-.57-.52-.29-.26-.58-.53-.87-.8-.39-.35-.78-.72-1.17-1.1-.3-.29-.6-.58-.9-.88-.3-.29-.59-.59-.89-.9-.32-.32-.63-.65-.94-.98-.16-.16-.31-.32-.46-.49-.29-.3-.57-.61-.85-.92-.18-.2-.36-.4-.54-.61-.3-.35-.6-.69-.9-1.04-.14-.16-.28-.33-.42-.5-.74-.88-1.45-1.78-2.14-2.69-.28-.36-.55-.72-.81-1.09-.25-.34-.5-.69-.74-1.04-.28-.4-.55-.8-.81-1.2-.26-.38-.51-.76-.75-1.14-.24-.38-.48-.77-.71-1.15-.24-.39-.47-.78-.7-1.18-.22-.39-.45-.79-.67-1.19-.21-.4-.43-.8-.64-1.21-.21-.4-.41-.81-.61-1.22-.2-.41-.4-.82-.59-1.24-.16-.34-.31-.69-.46-1.04-.21-.47-.41-.95-.61-1.44-.2-.48-.39-.97-.57-1.46.28-.32.55-.64.81-.97.26-.32.5-.64.74-.97.32-.45.63-.91.93-1.37.2-.32.4-.64.58-.97.1-.16.19-.33.28-.49.22-.39.42-.77.61-1.17.14-.27.28-.54.4-.82.23-.49.44-.98.64-1.48.09-.2.17-.4.24-.61.35-.89.66-1.79.94-2.71l10.96-.62c10.39,19.41,33.53,16.85,49.93,23.8,13.79,5.9,24.8,2.78,39.48,4.9,16.46,2.67,32.48,9.73,50-.11,5.78-3.28,15.96,2.11,22.3-.45,15.57,7.84,33.81,14.46,51.16,9.68,2.28-4.12,3.78-8.57,4.67-13.18,7.78,2.72,15.74-5.56,22.24-6.73-2.45-16.29-10.73-31.14-21.41-46.32-2.67-16.85-15.01-70.52-34.7-63.73-1.94-15.24-2.11-34.53,16.41-35.98l37.14,37.04c3.17,22.07,2.62,62.28,24.03,76.12,35.98,17.8,78.13-4.61,110.55-18.35.71-.3,1.41-.6,2.13-.89.1-.05.2-.09.31-.13.61-.24,1.23-.49,1.84-.74,1.44-.57,2.89-1.13,4.35-1.67,1.04-.38,2.09-.75,3.14-1.11.53-.18,1.06-.36,1.59-.53.53-.17,1.06-.34,1.59-.51,2.98-.93,5.99-1.75,9.02-2.42,1.72-.38,3.46-.72,5.19-1,.44-.07.87-.14,1.31-.2.87-.12,1.73-.23,2.6-.33.87-.1,1.75-.19,2.62-.25.87-.06,1.74-.11,2.6-.15.44-.02.87-.03,1.31-.04.52-.01,1.04-.02,1.57-.01.52,0,1.03.01,1.55.03.22,0,.45.01.67.02.44.02.88.04,1.32.07.96.05,1.91.13,2.87.24.26.03.52.06.77.09.83.1,1.65.22,2.47.36-1.16,1.5-5.45,10.01.17,9.79,15.41-.51,31.92-8.85,42.99-16.91,18.07-13.07,31.75-5,47.32-6.23,40.6-3.22,67.51,21.19,92.65,51.83,15.34,18.63,21.96,25.86,19.74,51.88Z"/>
  <path class="cls-3" d="M1286.09,1099.8c-32.42,13.74-74.57,36.15-110.55,18.35-21.41-13.84-20.86-54.05-24.03-76.12l-37.14-37.04c5.95-17.02,20.74-30.81,38.42-34.76.24.06.48.12.72.19.44.11.88.23,1.3.36.42.12.83.25,1.23.38.69.22,1.35.46,1.98.71.39.15.76.31,1.12.47.73.32,1.41.66,2.05,1.01.9.5,1.72,1.02,2.46,1.58.17.13.34.26.51.4.17.14.34.28.51.43.23.2.45.4.66.6.21.2.41.41.6.62.16.16.3.32.42.48.1.11.2.23.29.35.27.32.51.64.72.97.04.05.07.11.11.16.11.16.21.32.31.49.1.17.2.33.29.5.2.36.38.72.55,1.09.09.2.18.41.27.61.11.29.22.59.32.89.17.5.32,1.02.45,1.54.05.2.1.4.14.61.04.2.08.41.12.61.04.19.07.39.1.58.04.22.07.44.1.67.05.36.09.71.12,1.07.04.48.08.97.11,1.46.02.5.04,1,.04,1.5.07,4.19-.39,8.54-.19,12.65.04.75.09,1.48.18,2.21.06.48.13.97.22,1.45.08.47.18.94.3,1.41.12.46.25.92.41,1.37.15.45.32.9.52,1.33.19.44.41.87.65,1.29.06.1.12.2.19.3s.14.19.22.29c.33.41.75.79,1.26,1.15.3.21.63.41.98.6.57.3,1.21.58,1.92.84.35.13.72.25,1.11.37.05.01.09.03.14.04.41.12.83.24,1.28.35.14.03.28.07.43.1.32.08.66.15,1,.22.34.07.69.14,1.05.2.26.05.53.1.8.14,1.08.18,2.22.33,3.43.46.69.07,1.4.14,2.13.2,1.48.12,3.04.21,4.67.27.56.03,1.13.05,1.71.06.31.01.62.02.94.02,2.91.06,6,.05,9.24-.04.43-.01.87-.02,1.3-.04.44-.01.88-.03,1.33-.04.48-.02.97-.04,1.46-.06.24,0,.48-.02.73-.03,1.19-.05,2.39-.11,3.61-.18.99-.05,1.99-.11,3-.18,1.21-.08,2.45-.16,3.69-.26.75-.05,1.51-.11,2.27-.17.76-.06,1.52-.12,2.29-.19.76-.06,1.53-.13,2.3-.2.7-.06,1.4-.12,2.1-.19.7-.06,1.4-.13,2.11-.2,2.82-.28,5.65-.58,8.46-.9,5.06-.58,10.08-1.22,14.93-1.9,1.08-.15,2.15-.3,3.21-.45.07-.02.15-.03.23-.03.98-.15,1.95-.29,2.91-.44,1.03-.16,2.06-.31,3.07-.47,2.53-.4,4.98-.8,7.32-1.19,3.62-.62,6.99-1.24,10.02-1.84.38-.07.75-.14,1.12-.22.37-.07.73-.14,1.09-.22,1.25-.25,2.43-.5,3.54-.75.32-.07.64-.14.94-.21.46-.1.91-.21,1.33-.31.27-.06.53-.13.78-.19.48-.11.94-.23,1.38-.34.26-.07.52-.13.76-.2,24.69,81.8-33.03,38.31-6.17,93.36Z"/>
  <path class="cls-6" d="M1025.45,1083.79l-21.75,78.02c-14.68-2.12-25.69,1-39.48-4.9,2.56-15.68,25.97-41.26,21.47-52.32-6.12-15.07-24.97,19.35-48.72-3.51.45-5.34.67-10.66.28-16h0c8.68-1.18,10.46-14.08,19.91-12.64h.01c6.56,3.24,12.56,10.79,20.01,9.9,6.39-.78,11.23-8.45,18.57-11.01,12.18-4.28,22.02,6.45,29.7,12.46Z"/>
  <path class="cls-6" d="M1076,1161.25c-6.34,2.56-16.52-2.83-22.3.45-5.73-31.2,3.22-76.02-23.08-79.52,2.78-19.3,8.9-40.88,36.37-43.94,2.33,15.24,17.57,120.84,9.01,123.01Z"/>
  <path class="cls-1" d="M1154.07,1151.02c-6.5,1.17-14.46,9.45-22.24,6.73,1.11-17.85-21.8-23.86-29.86-38.98-12.63-23.86-.95-53.5-4.01-77.8,19.69-6.79,32.03,46.88,34.7,63.73,10.68,15.18,18.96,30.03,21.41,46.32Z"/>
  <path class="cls-7" d="M1053.7,1161.7c-17.52,9.84-33.54,2.78-50,.11l21.75-78.02c1.55-.67,3.45-1.84,5.17-1.61,26.3,3.5,17.35,48.32,23.08,79.52Z"/>
  <path class="cls-9" d="M964.23,1156.91c-16.4-6.95-39.54-4.39-49.94-23.8,6.17-11.68,10.73-25.36,22.69-32.03,23.75,22.86,42.6-11.57,48.71,3.5,4.5,11.07-18.91,36.65-21.47,52.33Z"/>
  <path class="cls-4" d="M936.97,1101.08c-11.95,6.68-16.51,20.36-22.68,32.03l-10.96.62c-.37.02-.72.03-1.04,0-.12,0-.23,0-.34-.02-.34-.03-.65-.07-.93-.15-.07-.01-.13-.03-.2-.05-.11-.03-.21-.06-.31-.1-.12-.04-.22-.09-.33-.14-.1-.05-.2-.11-.29-.17-.06-.03-.12-.07-.17-.12-.05-.03-.1-.07-.15-.12-.02-.01-.03-.02-.05-.04-.05-.04-.09-.08-.12-.12-.08-.07-.14-.15-.2-.23-.12-.16-.22-.34-.3-.53-.03-.06-.05-.12-.07-.19-.03-.06-.05-.12-.06-.19-.03-.14-.06-.29-.08-.43-.02-.16-.03-.31-.03-.47,0-.7.17-1.51.5-2.39,0-19.96,10.79-37.43,19.96-54.72h.04c.78.01,1.57,0,2.37-.01h.07c.31-.01.62-.01.94-.01.32-.01.64-.01.96-.01.52,0,1.04,0,1.57.02.17,0,.35.01.52.02s.35.01.53.03c.35.02.71.05,1.06.09.18,0,.36.03.54.06.18.02.36.04.54.07.18.03.36.06.55.09.17.03.34.06.51.1.23.04.46.09.69.15.06.02.13.03.19.05.16.04.31.09.47.13.07.02.15.04.22.06.06.02.13.04.2.07.31.09.62.19.93.31,0,0,.02.01.03.02.09.03.17.06.25.1s.16.08.23.11c.16.08.31.16.46.25.1.07.19.13.28.2.1.06.19.13.28.21.1.07.19.16.29.24.09.08.17.16.25.25.12.12.24.24.35.38.12.14.23.29.35.44,0,.02.03.04.04.06.13.17.25.36.36.55.07.1.13.21.19.32.12.22.24.45.35.68.07.15.13.29.19.44s.12.3.18.45c.06.16.12.31.17.47.15.4.27.82.37,1.23h0c.14.54.25,1.08.34,1.62.04.22.07.44.1.66.08.55.13,1.09.17,1.61h0c.39,5.35.17,10.67-.28,16.01Z"/>
  <path class="cls-10" d="M1147.9,1318.13c-8.34-.61-17.07,1.11-28.14-.33-6.45-.89-5.28-8.45-5.45-11.68l11.29.5c6.45,5.73,15.13,6.84,22.3,11.51Z"/>
  <path class="cls-7" d="M518.32,1862.04l-22.35,65.34c-9.9,28.81-22.41,55.83-26.86,85.14l-8.01,52.94c-2.39,15.85-25.3,82.08-26.58,125.68-.67,21.63-3.5,41.1-3.67,61l-29.31,12.23c-6.23-31.59,5.89-62.45,8.62-95.93,3.45-43.54,14.01-89.03,25.47-130.29l24.19-87.36c38.82-140.13,56.05-86.36,58.5-88.75Z"/>
  <path class="cls-4" d="M439.8,2517.09c-13.4,3.61-25.14,3-38.09-.28-9.4-67.79-7.06-133.35-5.73-198.91-1.27-36.7,11.96-26.97,4.89-28.64,4.5-10.07-2.67-20.19.67-26.25l29.31-12.23-.72,110.83,9.68,155.48Z"/>
  <path class="cls-9" d="M1101.49,1373.23l-26.47-15.57c-15.29-8.95-29.47-19.07-44.71-28.02l-.33-6.62c-.29-.01-.58-.02-.87-.05-.15,0-.3-.02-.45-.04-.32-.03-.64-.07-.97-.12-.63-.09-1.26-.21-1.89-.36t-.02,0c-.63-.14-1.26-.31-1.88-.51-.39-.11-.78-.24-1.16-.37-.17-.05-.33-.1-.48-.17-.39-.12-.77-.26-1.15-.41-.62-.23-1.23-.47-1.84-.72-.61-.24-1.21-.49-1.82-.74-1.21-.51-2.41-1-3.6-1.45-2.39-.89-5.39-.17-8.01-1.45-3.17-1.61-8.45-4.44-4.78-8.95-1.41.3-2.81.4-4.18.34-.3-.01-.59-.03-.89-.06-.3-.02-.59-.06-.89-.1-.21-.03-.41-.06-.62-.1-.33-.05-.66-.12-.99-.19-.35-.08-.69-.17-1.04-.27-.29-.08-.59-.17-.88-.26-.29-.09-.58-.19-.87-.3-.29-.1-.58-.21-.87-.33-.26-.1-.52-.21-.78-.32-2.17-.93-4.31-2.14-6.45-3.5-.34-.22-.68-.43-1.02-.66-.45-.3-.91-.6-1.36-.91-.46-.31-.91-.62-1.36-.94-.14-.09-.27-.18-.4-.28-.78-.53-1.55-1.09-2.33-1.64-.46-.32-.91-.65-1.37-.97-.46-.33-.91-.65-1.37-.97-.68-.48-1.37-.96-2.06-1.43-.45-.31-.91-.62-1.38-.92-.36-.24-.72-.48-1.09-.71-.19-.12-.37-.24-.56-.35-.84-.53-1.68-1.03-2.52-1.5-.24-.13-.47-.26-.71-.39-.23-.13-.47-.25-.7-.37-.33-.17-.66-.33-.99-.49-.33-.16-.66-.31-1-.46-.05-.03-.1-.05-.15-.07-.28-.12-.56-.24-.85-.36-.34-.14-.67-.27-1.01-.39-.33-.12-.67-.24-1.01-.35-.25-.08-.49-.15-.74-.23-.3-.09-.6-.17-.9-.24-.28-.07-.55-.13-.83-.19s-.55-.11-.83-.16-.56-.09-.84-.13c-.28-.04-.56-.07-.84-.09-.84-.08-1.68-.1-2.54-.06-.27.01-.55.02-.83.05-.3.03-.61.06-.91.1-.31.04-.61.07-.91.11-.45.06-.89.13-1.34.2-.11.01-.22.03-.33.06-.46.08-.93.17-1.39.26-.34.07-.67.15-1.01.22-1.02.22-2.03.49-3.04.79-.34.1-.67.21-1.01.31-.6.19-1.2.38-1.81.59-.3.1-.6.21-.9.32-1.2.42-2.41.9-3.63,1.41-.51.21-1.01.42-1.52.65-.5.22-1.01.45-1.52.68-.48.22-.94.43-1.41.66-.47.22-.94.45-1.42.68-1.13.54-2.26,1.11-3.4,1.71-.63.32-1.27.65-1.91.99-.64.34-1.29.68-1.94,1.03-.62.33-1.24.66-1.87,1s-1.26.68-1.9,1.03c-4.84,2.63-9.94,5.45-15.46,8.26-1.16.6-2.34,1.18-3.54,1.77-2.28,1.12-4.62,2.22-7.05,3.3-.36.16-.72.33-1.09.48-1.11.49-2.23.97-3.37,1.45-.62.26-1.26.52-1.89.77-.79.32-1.59.64-2.4.95-.75.29-1.51.58-2.28.86-1.01.38-2.04.75-3.09,1.11-.52.19-1.05.37-1.58.54-1.06.36-2.13.71-3.22,1.05-.27.09-.54.18-.82.26-.95.29-1.91.58-2.88.86-.57.17-1.15.33-1.74.49-1.93.54-3.9,1.05-5.92,1.52-.51.13-1.02.25-1.53.36-2.86.65-5.81,1.24-8.87,1.76-.43.08-.87.15-1.31.22-1.59.26-3.2.5-4.84.72-.46.07-.93.13-1.4.18-1.19.16-2.39.3-3.61.42-.51.06-1.03.11-1.55.16-.76.08-1.52.15-2.29.21-.68.06-1.37.11-2.06.16-.5.04-1.01.08-1.52.11-.89.06-1.79.11-2.69.16l-20.96,1.11-13.18.12c2.11,12.67-6.45,26.24.44,37.92-2.44,10.96-10.62,15.13-20.8,26.36l-57.83,63.67c-5.28,5.79-14.74,27.97-24.97,10.57-3.72-6.34,7.68-26.69-4-30.92-21.02-7.68-44.43-1.95-63.45,4.17-2.39,23.74-2.67,49.1,8.23,72.9,2.28,4.95,10.79,2.39,13.79,3.45,2.34-5.78,6.23-15.24,15.85-15.4,6.73-.06,11.12,7.45,10.79,11.84-.34,4.51-9.24,6.4-10.46,9.73-1.72,9.29,1.67,22.53,10.23,27.7l5.06,32.75c-3.11-2.11-6.45-3.95-10.01-5.34-9.95-14.4-19.63-33.09-38.53-33.36-.78-5.01-2.62-10.57-6.18-12.96-4.05-2.78-8.28-2.11-11.95-2.5,25.52,10.56-59.78,162.1-75.46,194.46-79.25,163.49-133.58,333.77-150.04,515.94-8.67,96.1-10.01,191.02,9.46,283.06,14.01,10.62,43.43,6.89,56.11-4.51-32.65-257.36,2.39-474.68,105.26-711.18,31.65-72.74,72.96-136.58,112.89-205.42,4.28-5.34,20.69-3.4,25.75-.23l.5-6.84c10.34,4.34,29.08,2.73,28.69,16.57,4.56,0,10.96-1.83,15.3-.5,53.38,16.46,117.55,1.89,161.37-38.81,51.5-47.77,101.99-90.76,163.33-126.51,24.97-14.57,43.65-39.26,64.62-55.95-6.29-10-19.02-11.62-28.2-16.96ZM495.96,1927.38c-9.89,28.81-22.41,55.83-26.86,85.14l-8,52.94c-2.39,15.85-25.31,82.08-26.58,125.67-.67,21.64-3.51,41.1-3.67,61.01l-.73,110.83,9.68,155.48c-13.4,3.61-25.14,3-38.09-.28-9.4-67.79-7.07-133.34-5.73-198.9h0c.11-5.68.29-9.97.69-13.59.11-.98.24-1.92.38-2.82.03-.18.06-.35.09-.52.06-.35.12-.7.19-1.04,0-.07.03-.13.04-.2h0c.08-.42.18-.84.27-1.24.09-.39.19-.78.29-1.17,0-.01,0-.03,0-.04.04-.14.07-.27.11-.41.08-.3.17-.61.26-.91.1-.3.19-.61.29-.91.13-.4.27-.81.42-1.23.11-.33.24-.66.37-.99.23-.63.48-1.26.75-1.9.1-.22.19-.44.29-.67.14-.32.28-.65.43-.99,0,0,0,0,0-.02,4.51-10.07-2.67-20.19.67-26.25-6.23-31.58,5.89-62.45,8.62-95.92,3.45-43.55,14.01-89.04,25.47-130.3l24.19-87.36c38.81-140.13,56.05-86.36,58.5-88.75l-22.36,65.34Z"/>
  <path class="cls-12" d="M992.36,1228.87c-2.5.44-5.39.5-8.06-.61-3.78-1.56-5.62-6.01-4-10.07,3.73-.44,8.23-.44,10.57,3.06,1.45,2.11.44,5.73,1.5,7.62Z"/>
  <path class="cls-6" d="M925.91,1050.76c-2.89,7.17-3.12,15.9-6.79,22.8-9.17,17.29-19.96,34.76-19.96,54.72-16.35-6.01-26.19-21.3-40.59-30.98-26.2-17.51-17.97-43.98-61.67-30.08-4.9-.56-6.62-13.29-5.95-17.13,28.24-24.69,58.66-47.93,93.64-69.23,9.4,12.34,8.45,62.89,22.3,68.79,7.34,3.11,13.4,1.55,19.02,1.11Z"/>
  <path class="cls-9" d="M1001.9,997s0,.01,0,.01c-.22.6-.46,1.19-.72,1.77h-.01c-.26.6-.54,1.18-.84,1.76-.15.29-.3.58-.46.87-.3.58-.64,1.15-1,1.72-.35.57-.72,1.13-1.1,1.7-.18.27-.37.54-.56.81-.2.29-.41.58-.62.86-.41.56-.84,1.11-1.28,1.66-.44.54-.89,1.08-1.37,1.61-.32.37-.65.74-.99,1.1-.39.43-.8.87-1.21,1.3-.38.39-.77.78-1.17,1.17-.39.39-.79.78-1.2,1.16h0c-.41.38-.81.78-1.2,1.18-.4.4-.78.81-1.16,1.22-.25.27-.49.54-.72.82-.22.24-.42.48-.62.73-.5.59-.97,1.18-1.42,1.79-.22.28-.43.57-.64.86-.42.58-.83,1.16-1.23,1.75-.5.73-.97,1.48-1.44,2.23-.46.75-.91,1.51-1.35,2.27-.34.59-.67,1.18-1,1.77-.65,1.18-1.28,2.37-1.91,3.56-1.24,2.37-2.44,4.73-3.7,7.03-.31.57-.63,1.15-.95,1.71-.25.45-.5.89-.77,1.33-.25.43-.51.85-.77,1.27-.27.45-.55.89-.83,1.33-.55.85-1.12,1.68-1.72,2.48-.3.4-.6.8-.91,1.19-.26.33-.53.66-.8.98-.21.24-.41.47-.62.7-.23.27-.47.53-.72.79-.27.3-.55.58-.84.87-.36.35-.73.7-1.11,1.04-.74.67-1.52,1.3-2.35,1.9-1.99-13.83-18.27-3.78-28.59-5.88-.24-1.97-.31-3.84-.2-5.63.02-.31.04-.62.07-.92.03-.31.06-.61.1-.91.04-.37.1-.75.16-1.12s.13-.73.21-1.09c.31-1.46.74-2.85,1.27-4.2.23-.58.48-1.15.76-1.72.08-.21.18-.41.3-.61.24-.51.52-1.01.8-1.51,1.12-1.97,2.48-3.86,4.02-5.71.4-.49.82-.96,1.24-1.44.91-1.03,1.88-2.05,2.91-3.07.15-.16.31-.32.47-.47.45-.45.92-.91,1.4-1.36.62-.6,1.27-1.2,1.93-1.8,1.36-1.25,2.79-2.51,4.26-3.79.67-.58,1.35-1.17,2.03-1.77.8-.68,1.62-1.38,2.44-2.1,1.12-.96,2.26-1.94,3.42-2.96h.01c.79-.69,1.59-1.39,2.39-2.11,1.22-1.07,2.45-2.17,3.69-3.31,1.24-1.14,2.49-2.3,3.74-3.52h0c1.05-1.01,2.1-2.05,3.15-3.11,1.06-1.07,2.12-2.16,3.17-3.28.43-.46.86-.92,1.27-1.38.85-.92,1.69-1.86,2.53-2.83h0c.32-.37.63-.74.95-1.11.34-.39.68-.8,1.01-1.2.3-.35.59-.7.87-1.05.32-.38.64-.77.95-1.16,1.32-1.64,2.63-3.36,3.93-5.14.75-1.03,1.5-2.08,2.23-3.16.41-.59.81-1.19,1.21-1.79l5.99,2.88,5.98,2.87h0c1.86,6.38,1.41,12.44-.76,18.16Z"/>
  <path class="cls-6" d="M1057.87,906.01l-.02.02c-.61.6-1.21,1.22-1.79,1.85-.4.42-.8.85-1.18,1.28-.97,1.08-1.93,2.2-2.89,3.35-.51.62-1.03,1.25-1.54,1.89-.53.66-1.06,1.32-1.59,1.99-1.4,1.75-2.81,3.55-4.27,5.35-.75.93-1.52,1.87-2.3,2.8-.2.24-.41.49-.62.73-.24.29-.49.59-.75.88-.23.27-.47.54-.71.82-.3.34-.6.69-.92,1.03-.3.34-.61.69-.93,1.03-.31.34-.63.68-.96,1.02-.6.63-1.22,1.26-1.85,1.88-.23.23-.46.45-.7.69-.15.14-.3.29-.45.43-.11.11-.23.21-.34.31-.38.36-.77.72-1.17,1.07-.4.36-.8.71-1.21,1.07-.33.29-.66.56-.99.83-.21.18-.42.35-.63.52l-.12.09c-.34.28-.69.55-1.04.82-.62.47-1.23.95-1.82,1.43t-.02.02s-.09.07-.12.1c-.18.14-.35.29-.52.43-.6.51-1.19,1.02-1.76,1.54-.38.34-.74.68-1.1,1.02-.65.62-1.28,1.25-1.88,1.89-.28.28-.54.56-.8.85-1.34,1.47-2.57,2.98-3.7,4.53-.3.42-.6.84-.88,1.26-.29.43-.57.85-.84,1.28-.03.04-.05.08-.08.12-.24.39-.47.78-.7,1.17-.26.44-.5.87-.74,1.31-.24.43-.46.87-.68,1.3h0v.02c-.16.32-.31.65-.47.97-.1.22-.2.43-.3.65-.19.43-.38.87-.56,1.31-.2.49-.39.99-.57,1.49-.15.41-.29.83-.43,1.25-.17.52-.32,1.04-.47,1.56-.11.41-.22.82-.32,1.23-.2.85-.38,1.71-.53,2.57h0c-.06.37-.17.73-.32,1.09-.1.23-.22.47-.35.7-.12.23-.27.47-.43.71-.23.35-.49.7-.77,1.04,0,.01-.01.01-.01.01-.46.58-.96,1.16-1.47,1.74-.21.24-.41.48-.62.72-.2.23-.4.47-.59.7t-.01.01c-.28.36-.56.72-.82,1.09t-.01.01c-.17.25-.33.49-.48.74-.33.55-.6,1.12-.79,1.69-.06.2-.12.4-.16.6-.07.3-.11.61-.12.93v.02l-5.98-2.89-5.98-2.9c4.56-5.17,3.23-16.4,6.12-22.52,13.79-11.29,21.19-28.41,30.25-43.65,3.45-5.78,6.95-11.4,14.57-12.12,1.25,1.07,2.51,2.13,3.8,3.16,1.93,1.56,3.92,3.05,5.98,4.42.69.46,1.38.9,2.09,1.32,1.41.85,2.86,1.64,4.37,2.33Z"/>
  <path class="cls-7" d="M960.57,1055.3h0s-3.4,17.15-3.4,17.15v.02c-9.44-1.46-11.22,11.44-19.92,12.61h0c-.04-.53-.09-1.07-.17-1.62-.03-.22-.06-.44-.1-.66-.09-.54-.2-1.08-.34-1.61h0c-.1-.42-.22-.84-.37-1.24-.05-.16-.11-.31-.17-.47-.06-.15-.12-.3-.18-.45s-.12-.29-.19-.44c-.11-.23-.23-.46-.35-.68-.06-.11-.12-.22-.19-.32-.11-.19-.23-.38-.36-.55-.01-.02-.03-.04-.04-.06-.12-.15-.23-.3-.35-.44-.11-.14-.23-.26-.35-.38-.08-.09-.16-.17-.25-.25-.1-.08-.19-.17-.29-.24-.09-.08-.18-.15-.28-.21-.09-.08-.18-.14-.28-.2-.15-.09-.3-.17-.46-.25-.07-.03-.15-.07-.23-.11s-.16-.07-.25-.1c-.32-.12-.64-.23-.96-.33-.07-.03-.14-.05-.2-.07-.07-.02-.15-.04-.22-.06-.16-.04-.31-.09-.47-.13-.06-.02-.13-.03-.19-.05-.23-.06-.46-.11-.69-.15-.17-.04-.34-.07-.51-.1-.19-.03-.37-.06-.55-.09-.18-.03-.36-.05-.54-.07-.18-.03-.36-.05-.54-.06-.36-.05-.71-.08-1.06-.09-.18-.02-.36-.02-.53-.03s-.35-.02-.52-.02c-.53-.02-1.05-.02-1.57-.02-.32,0-.64,0-.96.01-.32,0-.63,0-.94.01h-.04c-.29,0-.58,0-.86,0-.52.01-1.05.02-1.55.02,0-.01,0-.01,0-.02,3.65-6.89,3.88-15.62,6.77-22.8.33-.03.66-.09,1-.18.53-.14,1.07-.34,1.61-.54.38-.13.75-.27,1.12-.38.14-.05.29-.09.43-.12.1-.03.21-.05.31-.07s.19-.04.28-.05c.09-.02.18-.03.26-.04.12-.01.25-.02.37-.02s.23.01.34.02c.11,0,.21.02.32.04h.01c10.32,2.1,26.6-7.95,28.59,5.88Z"/>
  <path class="cls-8" d="M1027.06,906.9c-9.06,15.24-16.46,32.36-30.25,43.65-7.62-15.85-5.62-38.65,12.4-45.04,3.73,7.23,11.85,4,17.85,1.39Z"/>
  <path class="cls-10" d="M1015.86,1315.02c-.02.29-.06.59-.12.88-.04.19-.09.38-.16.58,0,0,0,.03-.01.04-.05.19-.12.38-.2.57-.04.11-.09.21-.14.31-.1.22-.22.45-.35.67-2.39-.89-5.39-.17-8.01-1.45-3.17-1.61-8.45-4.44-4.78-8.95,1.36-.28,2.9-.5,4.46-.5.21,0,.42,0,.63.02.14,0,.28,0,.42.02.22,0,.43.03.65.06.48.05.96.13,1.43.25.17.04.34.09.51.14.16.05.33.1.49.16.38.13.76.29,1.12.49.15.07.29.15.43.24.14.08.28.17.42.27.18.12.35.25.53.4.22.18.44.37.65.59.13.13.26.27.38.42.13.15.25.3.38.45,0,.01.01.02.01.02.11.16.22.32.32.49.1.16.2.34.29.51.17.36.31.73.42,1.11.05.19.1.38.13.58.04.19.06.39.08.59.04.34.04.69.02,1.04Z"/>
  <path class="cls-10" d="M1342.42,761.14c-.09-1.18-.24-2.36-.46-3.51-.05-.3-.11-.61-.18-.91-.04-.18-.08-.36-.12-.54-.04-.18-.08-.35-.13-.53-.08-.33-.17-.66-.27-.98-.07-.25-.15-.49-.23-.74-.11-.36-.23-.7-.36-1.05-.13-.36-.27-.73-.42-1.08-.03-.09-.06-.17-.1-.25-.17-.39-.34-.78-.53-1.15-.14-.32-.3-.63-.47-.93-.16-.3-.33-.6-.5-.89-.12-.2-.24-.39-.35-.58-.04-.06-.08-.12-.12-.18-.2-.32-.41-.63-.64-.93,0-.02-.01-.04-.03-.05-.24-.34-.49-.67-.76-.99-.33-.42-.67-.82-1.04-1.2-.25-.26-.5-.51-.76-.76-.22-.22-.45-.43-.68-.63-.47-.41-.96-.79-1.46-1.15-1-.72-2.07-1.33-3.22-1.84-.16-.07-.33-.14-.49-.21-.29-.12-.58-.23-.87-.33-.1-.04-.19-.08-.29-.1-.21-.07-.42-.14-.63-.2-.12-.05-.24-.08-.37-.11-.34-.09-.68-.18-1.03-.26-.37-.08-.74-.15-1.12-.21-.21.15-.42.29-.63.43-.41.3-.83.58-1.25.86-1.26.84-2.53,1.64-3.82,2.39-.65.38-1.3.74-1.95,1.1-1.96,1.07-3.95,2.05-5.96,2.95-.51.23-1.01.45-1.52.66-1.52.65-3.05,1.26-4.6,1.83-.52.19-1.03.38-1.55.56-1.04.37-2.08.72-3.13,1.06-.52.17-1.04.34-1.57.5-2.1.65-4.22,1.26-6.36,1.83-1.41.39-2.84.75-4.27,1.11-2.15.53-4.31,1.05-6.47,1.55-.72.17-1.45.34-2.17.5-.72.17-1.44.33-2.16.5-2.17.5-4.34.99-6.5,1.5-1.45.34-2.89.69-4.33,1.05-1.44.36-2.88.73-4.31,1.11-.72.19-1.44.38-2.15.58-.71.2-1.43.41-2.14.62l-20.4,5.95c3.76,2.95.21,8.39-3.62,10.84-2.56,1.55-6.68-1.56-8.96-4.45l-9.12.22c-.99.02-2.17.13-3.52.33-.19.03-.39.06-.59.09-.53.08-1.08.17-1.66.28-2.11.38-4.51.93-7.18,1.61-.65.16-1.33.34-2.01.53-.22.05-.44.11-.66.18-.48.13-.96.26-1.45.4-4.45,1.25-9.44,2.82-14.79,4.66-.36.12-.72.25-1.09.38-.36.12-.72.25-1.09.38-.67.23-1.35.47-2.03.72-.16.05-.32.11-.48.17-.66.24-1.32.48-1.98.72-.23.08-.47.17-.71.26-1.18.43-2.38.88-3.59,1.34-2.02.76-4.06,1.55-6.13,2.38-.94.37-1.89.75-2.84,1.14-.72.29-1.43.58-2.15.88-1.08.44-2.16.89-3.24,1.35-1.38.58-2.77,1.17-4.16,1.78-.67.29-1.33.58-2,.87-1.93.85-3.87,1.72-5.8,2.61-.97.44-1.93.89-2.89,1.35h-.01c-.96.45-1.92.91-2.88,1.37s-1.92.92-2.87,1.39c-1.43.7-2.85,1.41-4.26,2.13-.94.48-1.88.96-2.81,1.45-1.39.72-2.78,1.46-4.15,2.2-.68.37-1.36.74-2.03,1.11-1.13.62-2.25,1.25-3.37,1.89-.64.37-1.28.73-1.91,1.1-.25.15-.51.3-.76.45-.65.38-1.29.76-1.93,1.14-.66.4-1.31.79-1.96,1.19-.39.24-.77.48-1.15.72-1.56.97-3.09,1.96-4.58,2.95-.26.17-.52.34-.78.52-4.52,3.04-8.63,6.13-12.19,9.24-.36.31-.71.62-1.05.93-.27.23-.53.47-.8.73-.53.48-1.04.97-1.54,1.46-.31.3-.61.61-.91.91-.6.61-1.18,1.21-1.72,1.82-.28.3-.55.61-.81.91-.28.33-.55.65-.82.98-.31.37-.6.74-.88,1.12-.23.29-.45.59-.67.89-.21.3-.42.59-.62.89-.21.3-.4.6-.59.9-.19.29-.37.58-.54.88-.16.26-.31.53-.45.79-.17.31-.33.62-.48.93-.09.17-.17.35-.25.52-.19.39-.36.79-.52,1.19-.2.51-.38,1.03-.54,1.55-.08.25-.15.51-.22.77-.13.5-.23,1-.31,1.5-.04.27-.08.53-.11.79-.07.72-.1,1.44-.06,2.16.76.03,1.51.06,2.27.08h.19c.38.01.76.01,1.14.01.93.02,1.86.01,2.79,0-.08,0-.15,0-.23.01h-.05c-.2.01-.4.01-.6.01-.05.01-.11.01-.17,0-.25.01-.5.01-.76.01-.76.01-1.53,0-2.29-.02-.76-.01-1.53-.04-2.29-.07.07,1.44.37,2.86.82,4.28-.46-1.42-.77-2.84-.84-4.28-10.51-.49-23.84,7.06-31.01,12.4-10.23,7.67-9.12,21.46-9.62,32.36,1.25,1.07,2.51,2.13,3.8,3.17,1.93,1.56,3.92,3.05,5.98,4.42.69.46,1.38.9,2.09,1.32,1.41.85,2.86,1.64,4.37,2.33l-.02.02c-.61.6-1.21,1.22-1.79,1.85-.4.42-.8.85-1.18,1.28-.97,1.08-1.93,2.2-2.89,3.35-.51.62-1.03,1.25-1.54,1.89-.53.66-1.06,1.32-1.59,1.99-1.4,1.75-2.81,3.55-4.27,5.35-.75.93-1.52,1.87-2.3,2.8-.2.24-.41.49-.62.73-.24.29-.49.59-.75.88-.23.27-.47.54-.71.82-.3.34-.6.69-.92,1.03-.3.34-.61.69-.93,1.03-.31.34-.63.68-.96,1.02-.6.63-1.22,1.26-1.85,1.88-.23.23-.46.45-.7.69-.15.14-.3.29-.45.43-.11.11-.23.21-.34.31-.77.74-1.56,1.45-2.38,2.14-.33.29-.66.56-.99.83-.21.18-.42.35-.63.52l-.12.09c-.34.28-.69.55-1.04.82-.62.47-1.23.95-1.82,1.43t-.02.02s-.09.07-.12.1c-.18.14-.35.29-.52.43-.6.51-1.19,1.02-1.76,1.54-.38.34-.74.68-1.1,1.02-.65.62-1.28,1.25-1.88,1.89-.28.28-.54.56-.8.85-1.34,1.47-2.57,2.98-3.7,4.53-.3.42-.6.84-.88,1.26-.29.43-.57.85-.84,1.28-.03.04-.05.08-.08.12-.24.39-.47.78-.7,1.17-.26.44-.5.87-.74,1.31-.24.43-.46.87-.68,1.3h0v.02c-.16.32-.31.65-.47.97-.1.22-.2.43-.3.65-.19.43-.38.87-.56,1.31-.2.49-.39.99-.57,1.49-.15.41-.29.83-.43,1.25-.17.52-.32,1.04-.47,1.56-.11.41-.22.82-.32,1.23-.2.85-.38,1.71-.53,2.57.54-.13,1.07-.26,1.62-.38-.03,0-.07.01-.1.03-.51.12-1.02.24-1.52.36-.06.36-.17.72-.32,1.08-.1.23-.22.47-.35.7-.12.23-.27.47-.43.71-.23.35-.49.7-.77,1.04,0,.01-.01.01-.01.01-.46.58-.96,1.16-1.47,1.74-.21.24-.41.48-.62.72-.2.23-.4.47-.59.7t-.01.01c-.28.36-.56.72-.82,1.09t-.01.01c-.17.25-.33.49-.48.74-.33.55-.6,1.12-.79,1.69-.06.2-.12.4-.16.6-.07.3-.11.61-.12.93h0c.79,2.71,1.17,5.37,1.17,7.97,0,.43-.01.85-.03,1.27-.03.45-.06.9-.1,1.34,0,0,0,0,0,0,0,.08,0,.16-.02.24,0,.08-.01.17-.03.25-.01.13-.02.26-.04.39,0,.02-.01.04-.01.06-.02.12-.03.24-.06.35-.02.21-.05.42-.09.62-.02.17-.05.34-.09.5-.01.06-.01.1-.02.15-.01.05-.03.1-.04.15-.01.11-.03.21-.06.32-.03.17-.07.35-.12.52,0,.09-.04.17-.06.26.01,0,.01.01.01.01h0s0,.01-.01.01c0,.07-.03.14-.04.21,0,.02,0,.05-.02.07-.02.05-.03.09-.04.14-.07.28-.15.56-.23.84,0,.05-.03.1-.04.15-.11.36-.22.73-.34,1.09-.14.42-.28.83-.44,1.24,0,.01,0,.01,0,.01-.22.6-.46,1.19-.72,1.77h-.01c-.26.6-.54,1.18-.84,1.76-.15.29-.3.58-.46.87-.3.58-.64,1.15-1,1.72-.34.57-.71,1.14-1.1,1.7-.17.27-.36.54-.56.81-.2.29-.41.58-.62.86-.41.56-.84,1.11-1.28,1.66-.44.54-.89,1.08-1.37,1.61-.32.37-.64.73-.99,1.1-.39.43-.8.87-1.21,1.3-.38.39-.77.78-1.17,1.17-.39.39-.79.78-1.2,1.16h0c-.41.39-.81.78-1.2,1.18-.4.4-.78.81-1.16,1.22-.25.27-.49.54-.72.82-.22.24-.42.48-.62.73-.5.59-.97,1.18-1.42,1.79-.22.28-.43.57-.64.86-.42.58-.83,1.16-1.23,1.75-.5.73-.97,1.48-1.44,2.23-.46.75-.91,1.51-1.35,2.27-.34.59-.67,1.18-1,1.77-.65,1.18-1.28,2.37-1.91,3.56-1.24,2.37-2.44,4.73-3.7,7.03-.31.57-.63,1.15-.95,1.71-.25.45-.5.89-.77,1.33-.24.43-.5.85-.77,1.27-.27.45-.55.89-.83,1.33-.55.85-1.12,1.68-1.72,2.48-.3.4-.6.8-.91,1.19-.26.33-.53.66-.8.98-.21.24-.41.47-.62.7-.23.27-.47.53-.72.79-.27.3-.55.58-.84.87-.36.35-.73.7-1.11,1.04-.74.67-1.52,1.3-2.35,1.9h0s-3.4,17.15-3.4,17.15c6.56,3.23,12.56,10.78,20.01,9.89,6.39-.78,11.23-8.45,18.57-11.01,12.18-4.28,22.02,6.45,29.7,12.46,1.55-.67,3.45-1.84,5.17-1.61,2.78-19.3,8.9-40.88,36.37-43.94,2.33,15.24,17.57,120.84,9.01,123.01,15.57,7.84,33.81,14.46,51.16,9.68,2.28-4.12,3.78-8.57,4.67-13.18,1.11-17.85-21.8-23.86-29.86-38.98-12.63-23.86-.95-53.5-4.01-77.8-1.94-15.24-2.11-34.53,16.41-35.98,5.95-17.02,20.74-30.81,38.42-34.76,1.06-4.72,3.01-9.17,5.12-13.51.62-.42,1.41-.98,2.35-1.67.22-.16.44-.33.68-.5.16-.11.33-.24.51-.38.35-.26.71-.53,1.09-.81,2.45-1.85,5.5-4.23,8.93-6.98.56-.45,1.13-.91,1.71-1.38,2.75-2.21,5.7-4.63,8.75-7.18.47-.39.94-.78,1.42-1.18,1.95-1.63,3.93-3.31,5.92-5.02.66-.56,1.33-1.14,1.99-1.71,4.82-4.16,9.63-8.43,14.03-12.53.45-.42.88-.82,1.31-1.22,1.94-1.83,3.79-3.61,5.52-5.32.38-.39.76-.77,1.13-1.13.18-.19.36-.38.55-.56.18-.19.36-.38.55-.55.71-.75,1.4-1.46,2.06-2.17.33-.35.65-.69.96-1.03.78-.85,1.51-1.67,2.19-2.47.41-.48.79-.94,1.15-1.38.65-.8,1.24-1.57,1.75-2.29.15-.21.28-.41.42-.61.02-.03.04-.07.06-.1.09-.13.18-.26.26-.39.14-.22.27-.43.38-.63.13-.21.24-.41.33-.6.11-.19.2-.38.28-.56.05-.11.1-.22.14-.32.03-.06.05-.12.07-.18.06-.16.12-.32.16-.47.08-.26.12-.51.14-.74.55-.03,1.09-.1,1.6-.22.15-.03.3-.07.45-.12.04,0,.08-.02.13-.04.07-.02.14-.04.21-.06.11-.03.21-.06.32-.11.1-.03.2-.07.3-.11.4-.15.79-.34,1.17-.55.24-.13.47-.26.7-.4.16-.1.31-.21.47-.32.13-.09.25-.18.37-.27.16-.12.31-.24.46-.36.29-.23.58-.47.86-.74.14-.13.28-.26.42-.4.14-.13.28-.27.41-.41.23-.23.45-.47.67-.71.26-.29.52-.58.78-.88.33-.39.66-.8,1-1.21.27-.34.54-.68.81-1.03.3-.37.59-.75.89-1.12.24-.31.48-.61.72-.9.05-.07.11-.14.17-.21.18-.23.36-.45.55-.67.14-.18.29-.35.45-.52.14-.17.29-.34.45-.51.19-.22.38-.42.58-.62.11-.12.22-.23.34-.34.31-.31.62-.6.94-.86.35-.3.71-.57,1.07-.81.19-.13.37-.24.56-.35l23.57-11.73-2.44-23.52c-.56-8.84,5.34-17.52,6.34-26.19,18.74-2.34,32.53-16.46,49.32-23.97,8.07-3.56,18.85,1.22,20.58-10.62,1.17-8.18,3.67-15.3,2.5-22.64ZM1135.72,846.09c.26-.01.52-.02.78-.03"/>
  <path class="cls-10" d="M1013.94,954.71c-.24.43-.46.87-.68,1.3.22-.43.44-.87.68-1.3Z"/>
  <path class="cls-10" d="M1033.65,962.39c3.83-.72,7.67-1.5,11.45-2.41-3.78.92-7.62,1.69-11.45,2.41Z"/>
</svg>