<?xml version="1.0" encoding="UTF-8"?>
<svg id="Camada_1" xmlns="http://www.w3.org/2000/svg" version="1.1" viewBox="0 0 261.09 257.77">
  <!-- Generator: Adobe Illustrator 30.1.0, SVG Export Plug-In . SVG Version: 2.1.1 Build 136)  -->
  <defs>
    <style>
      .st0 {
        fill: #f8b9cb;
      }

      .st1 {
        fill: #fcc9d7;
      }

      .st2 {
        fill: #9cb63d;
      }

      .st3 {
        fill: #e5889c;
      }

      .st4 {
        fill: #fefefe;
      }

      .st5 {
        fill: #ca4b5f;
      }
    </style>
  </defs>
  <path class="st4" d="M161.23,241.06h-.7c.16-.26.4-.27.7,0Z"/>
  <g>
    <path class="st1" d="M97.09,209.66c-.98.84-1.11,2.23-1.56,3.77-1.8,6.17-.76,6.91-2.94,6.39-.95-.24-3.72-9.74-5.5-12.97-1.76-3.2-1.04-5.17.93-7.9,1.93-2.68,1.3-7.74-2.22-8.36-2.85-.5-6.09-.28-7.26-3.44-1.49-4.03-5.66-4.91-9.18-5.78-3.62-.89-6.39-2.63-10.1-.42-1.16.69-3.32,1.29-4.98.66-2.01-.76-3.36-6.02-1.33-6.94,3.16-1.41,6.81-.25,9.75-1.14.17-.05.36-.12.53-.12-1.11-7.09,1.61-5.23-.48-11.02l3.38-3.69c-1.38-3.38-4.4-5.48-8.2-6.01,1.51-7.62-4.19-7.35,1.11-10.26,4.08-2.24,8.3-2.9,12.57-3.11,2.53-.12,4.94-.63,7.98-.33-.43-1.31-1.51-.72-2.23-.85-11.84-1.26-13.25-.35-24.33,5.95-2.44-6.84,3.73-13.33-2.14-15.2-7.22-2.29-14.8,2.35-22.47,2.22,3.69-4.4,8.92-6.48,14.13-8.41l7.57-2.82c3.2-1.19,6.95,1.15,10.5-.72,1.12-.58,3.33-.11,4.16.64-.05-1.4.58-2.71,1.87-3.31.15-3.89-5.45-1.28-11.02-2.38-3.57-.71.81-1.04-5.7-.84-.4,0-.81-1.59-.35-1.62l7.37-.69c6.61-.63,18.23,6.63,17.68-1.1-.15-2.18-4.58-2.11-8.68-8.68-.94-1.51-2.9-2.27-3.63-3.95.21-1.55,2.21-4.24,1.39-5.82-1.82-2.07-2.64-4.36-3.82-6.68-.95-1.91-1.46-2.39-.54-4.53,1.16-2.74,2.25-4.46,5.38-5.41.97-.3,1.77-1.71,3.07-1.2.99.37,1.47,1.31,1.83,2.66.48,1.81,6.02,8.49,6.06,8.5,1.13.32,1.76-.67,2.65-1.12,4.84-2.39,2.25-6.26,3.65-7.15,3-1.91,2.76,7.26,2.7,9.07-.04.92,2.46,1.2,3.33.61,3.56-2.51,1.4-5.25,2.71-10.44.69-2.76-.97-4.15-1.67-5.78-1.42-3.33-4.1-1.62-5.86-2.56-3.94-2.08-6.86-5.51-12.3-4.52-2.53.46-5.26-1.21-7.58-1.5-2.48-.3-5.23-.63-7.71-.07-2.5.57-4.89,1.76-7.07,3.04-2.11,1.24-3.48,3.52-5.66,5-3.27,2.19-6.81,3.77-9.71,6.08-2.08,1.67-3.22,4.55-4.94,6.55-.48,2.01-.06,4.58-.07,7.16-7.38,5.1-9.5,13.73-8.75,22.21.88,9.71,2.94,3.04,1.52,16.22-.9,8.37,1.12,1.85,3.72,12.04,1.36.09,2.29-1,3.58-1.05,7.75,3.41,7.77,9.04,7.68,17.4-.06,5.78.24,12.05-2.47,17.06-.61,1.14-1.28,2.96-1.77,5.13-.87,3.78-1.18,8.6.35,12.64.66,1.76,1.66,3.37,3.12,4.68,2.46,8.62,6.68,17.64,16.43,17.9,13.6,15.73,20.13,9.18,30.6,11.52,6.02,1.35,11.69,1.6,17.39-1.91,4.65-2.87,6.97-8.32,8.3-13.44-3.2.32-7.94-2.25-10.79.21Z"/>
    <g>
      <path class="st1" d="M174.03,144.48c7.76.72,17.07,8.42,21.75,14.95-.47,4.25,8.38,21,8.74,23.47l1.8,12.43c2.26,15.64-1.41,9.57-2.95,16.12-.54,2.3-3.45,3.29-4.61,5.16-5.14,8.27-12.08,18.67-23.6,15.74l-7.36,6.02c-1.2.98-3.16,1.06-3.22,2.69h-3.36c-.31-.27-.55-.26-.7,0h-12.89c.27-.71.27-1.18-.24-1.34-.75-.23-1.72.2-2.27-.06-2.65-1.26-4.96-1.64-7.82-1.39-10.44.9-20.33-5.77-21.33-16.18l-.68-7.09c.86-1.33,2.12-1.6,3.79-1,1.78.64,3.19,1.45,3.86,3.4,1.24.57,3.16-.13,4.3.53,4.65,5.68-1.98,11.17.34,13.85,10.73-11.04,6-7.03,10.79-16.27,5.85-11.29-4.51-13.18,7.07-22.73,2.06,2.99,1.04,5.83,4.04,7.86,1.68-3.25-2.13-7.25,2.36-10.92,3.41-2.79,6.42,1.07,9.24,1.24,20.01,1.2,18.02,12.6,23.68,4,.71-1.08,2.04-2.2,1.72-3.39-1-3.66-6.23-2.4-8.54-5.1-.99-1.16-.48-3.27-1.01-4.69-1.48-3.99,4.18-3.43,3.1-6.42-.33-.93-6.65-3.65-4.34-6.59,3.58-4.56,13.53-1.81,17.47-4.32-.94-10.52-10.65-15.89-19.25-17.75-2.38-.51-4.5-1.82-7.06-1.4l.7-1.41,6.46.6Z"/>
      <path class="st1" d="M233.95,138.96c-.15,6.59-1.37,10.58-5.95,14.73-9.04,8.2-8.96,6.6-21.73,5.51.22-1.71,1.55-2.77,2.61-3.47,4.03-2.6,5.33,2.56,8.89-1.81.59-.73-.45-3.25.26-3.77,2.61-1.97,5.7.37,8.62,1.45-.92-4.4-4.94-6.42-7.41-9.49-3.22-4.03-.52-12.06-2.17-14.26-.68-.89-1.73-.76-3.01-.93l-7.59-.97c-1.4-.19-2.29-1.71-3.93-1.82-2.5-.17-6.06.35-7.99-1.6-2.43-2.43-1.71-6.73-.14-9.56l3.82-6.86c.92-1.65,1.49-3.1,2.18-4.93,1.89-4.94,7.02-4.46,4.84-11.37-.74-2.37-2.63-2.68-4.97-3.18-6.79-1.47-4.48,7.37-14.8,8.68-6.14-6.76-10.18-.43-12.64-3.21-2.82-3.21.77-10.33-1.11-12.65-3.75-4.61-20.14,3.67-24.11,14.48-.67,1.81-3.36,3.46-3.27,6.4-1.62-.68-.62-1.51-.89-2.25-.15-.36.09-1.03.08-1.41,2.6-3.75,4.04-8.5,7.16-11.94,2.98-3.3,7.58-4.74,11.42-7.62-5.38-3.82,1.57-7.73-3.74-10.02-2.46-1.07-2.91-2.87-2.8-5.61.05-1.16-1.03-2.49-.28-3.43,2.56-3.23,2.06.94,5.98-3.59l6.17-7.14c-4.89-6.22-6.65-3.34-11.85-3.1-6.73.31-1.98,12.04-16.38,11.74-.24,2.99-2.7,4.76-3.53,7.3l-4.03,12.39c-.35,1.04-4.26,1.19-4.36.14l-1.11-11.63c-.36-3.77-3.36-6.84-4.83-11.06-2.08,2.89.38,5.17,1.2,7.4.78,2.17,2.64,13.68,1.71,15.57-.56,1.11-1.8.97-2.7.78-2.9-.62-3.53-13.35-6.17-16.72l-5.28-6.71c-2.49-3.17-4.35-6.32-7.68-8.65-2.94-2.04-5.85-4.66-9.98-4.87.85,6.62,9.81,8.67,9.36,18.54l-5.78,4.95c-2.11-2.4-4.68-.26-6.52-.17-3.44.17-2.03-4.97-3.11-6.68-2.59-4.12-2.81-9.92-2.32-14.8,2.19-6.74,12.07-10.95,16.49-14.84,9.5-8.34,21.43-13.07,34.09-8.29l21.65,5.56,16.59,6.47c3.68,4.19,3.75,9.45,5.02,14.26,1.39,5.28,3.13,9.58,1.75,15.29-1.07,4.41-.1,9.38.66,13.73,3.36.12,5.88-1.05,9.08-1.91,2.8-.74,6.68.47,8.87-1.25-.97,2.69,8.87.71,13.48,1.61,6.91,1.35,12.15,5.93,15.32,11.9,4.88,3.34,8.87,7.22,11.52,12.47,1.81,3.58.99,7.66-.33,11.21-.46,1.24,1.28,2.27,1.66,3.21,4.01,9.69,1.28,20.54-6,27.8Z"/>
      <path class="st0" d="M219.26,142.12c-3.22-4.03-.52-12.06-2.17-14.26-.68-.89-1.73-.76-3.01-.93l-7.59-.97c-1.4-.19-2.29-1.71-3.93-1.82-2.5-.17-6.06.35-7.99-1.6-2.43-2.43-1.71-6.73-.14-9.56l3.82-6.86c.92-1.65,1.49-3.1,2.18-4.93,1.89-4.94,7.02-4.46,4.84-11.37-.74-2.37-2.63-2.68-4.97-3.18-6.79-1.47-4.48,7.37-14.8,8.68-6.14-6.76-10.18-.43-12.64-3.21-2.82-3.21.77-10.33-1.11-12.65-3.75-4.61-20.14,3.67-24.11,14.48,5.76,1.18,10.89,3.85,15.15,8.35,5.43-1.35.58,4.53,10.23,9.01,2.84-1.08,4.15-4.68,7.23-5.43-1.45,3.9-5.5,5.39-7.3,8.82-.84,1.62,1.71,3.8,2.65,4.89,1.04,1.2-.14,2.64-.25,3.9-.42,5.2.43,10.23-.32,15.37-.3,1.98-1.66,3.73-1.02,5.61,7.75.72,17.07,8.44,21.74,14.96,3.46.09,7.05-.52,10.5-.24.22-1.71,1.55-2.77,2.61-3.47,4.03-2.6,5.33,2.56,8.89-1.81.59-.73-.45-3.25.26-3.77,2.61-1.97,5.7.37,8.62,1.45-.92-4.4-4.94-6.42-7.41-9.49ZM179.19,111.48c-.2,0-.35-.15-.35-.35s.15-.36.35-.36.36.16.36.36-.16.35-.36.35ZM182.01,103.04c.19,0,.35.16.35.35,0,.2-.16.36-.35.36-.2,0-.36-.16-.36-.36,0-.19.16-.35.36-.35ZM180.24,104.79c0-.2.16-.35.36-.35s.35.15.35.35-.15.36-.35.36-.36-.16-.36-.36ZM190.11,104.63c-.26.68-.47,1.85-1.65,2.33-2.82,1.16-5.09,2.96-8.08,3.37l8.27-8.37c1.16-.26,1.77,1.8,1.45,2.68ZM203.35,133.59c-3.07.47-9.19-.56-9.41-4.48-.63-3.16,12.63-3.44,13.11.36.35,2.81-.71,3.67-3.69,4.13Z"/>
      <path class="st0" d="M177.95,186.48c-.99-1.16-.47-3.27-1-4.69-1.49-3.99,4.17-3.43,3.1-6.43-.33-.93-6.64-3.65-4.34-6.59,3.58-4.56,13.54-1.81,17.47-4.32-.94-10.53-10.65-15.89-19.25-17.75-.5.45-.54,1.08-.48,1.55.06.43,1.51,1.4,1.3,1.89-2.27,5.31-2.59,8.94-6.32,13.74-1.52,1.95-5.6,1.35-7.01,3.37-.73,1.39-.4,4.74-2.28,5.29-3.6-1.19-6.97-3.99-9.23-6.7-.71.02-1.42.19-1.98.63l4.66,4.43c.99.95,3.36,2.22,2.77,3.57-1.6.77-3.06,1.65-4.29,2.89-1.36,1.41-3.01-1.1-4.24-.79-.95.25-1.37,1.94-2.24,1.91-.83-.02-1.62-.54-2.56-.63-2.35-.22-4.39,1.33-6.81,1.36-3.59.04-6.83-.28-10.49.27-.16-3.52-1.2-6.49-2.37-9.53l-.58-.1c-2.25,3.8,1.96,8.51-1.2,10.57-.98.64-3.28,1.52-4.53.93.01,1.54-.33,3.25-1.62,4.09-1.36.89-3.17.76-4.55.11-5.96-2.78-6.16-6.64-8.55-6.01-.62.79-.57,2.69-1.72,2.51-.58-.09-1.92-.07-2.04-.83,2.17-3.05,5.62-5.19,7.28-8.35-3.67,1.76-5.39,6.84-9.88,6-2.3-.45-4.76-1.18-5.39-3.96l-3.64.57c-.09-6.24-.87.63-4.55-8.97,4.31-2.34,8.15-4.11,11.74-6.56,1.91-1.3,3.65-3.1,5.23-4.78l-6.75,3.56c-3.54,1.86-7.31,5.51-11.93,5.39-2.43-.07-2.54-4.26-3.37-5.69-.5-.86-2.07-.77-2.55-1.33-.59-.67.11-1.77-.17-2.63-2.56-7.89-1.23-7.77-1.95-15.15-4.27.21-8.5.87-12.57,3.11-5.3,2.91.4,2.64-1.11,10.26,3.8.53,6.83,2.63,8.2,6.01l-3.38,3.69c2.09,5.8-.63,3.94.48,11.02,4.51-.07,8.41-2.07,13.08-3.12-3.89,2.73-7,5.43-11.2,7.25-1.29.17-2.4-2.81-2.42-4-2.94.89-6.59-.27-9.75,1.14-2.03.92-.68,6.18,1.33,6.94,1.66.63,3.82.04,4.98-.66,3.7-2.21,6.48-.47,10.1.42,3.52.88,7.69,1.76,9.18,5.78,1.16,3.16,4.41,2.95,7.26,3.44,3.52.62,4.15,5.69,2.22,8.36-1.97,2.74-2.69,4.71-.93,7.9,1.78,3.23,4.55,12.73,5.5,12.97,2.18.52,1.14-.22,2.94-6.39.45-1.54.58-2.92,1.56-3.77,2.85-2.47,7.59.11,10.79-.21.74-2.87,2.44-5.56,4.35-7.89,1.85,4.76,2.65,9.04,3.07,13.44.85-1.33,2.12-1.61,3.79-1,1.78.64,3.2,1.45,3.86,3.41,1.25.57,3.16-.14,4.3.53,4.66,5.67-1.98,11.17.35,13.85,10.73-11.04,6.01-7.02,10.79-16.26,5.85-11.28-4.51-13.18,7.07-22.73,2.06,2.99,1.04,5.82,4.04,7.85,1.67-3.24-2.13-7.25,2.35-10.91,3.42-2.79,6.43,1.07,9.24,1.24,20.02,1.2,18.02,12.6,23.68,3.99.72-1.08,2.04-2.19,1.72-3.38-1-3.67-6.23-2.4-8.55-5.1ZM77.07,169.94c-.2,0-.36-.16-.36-.36,0-.19.16-.35.36-.35.19,0,.35.16.35.35,0,.2-.16.36-.35.36ZM93.36,186.39c-1.52.64-3.74-.28-4.86-1.86-.78-1.09,1.09-3.88,2.4-4.32,2.22-.74,3.94.05,4.63,1.54.86,1.81.25,3.63-2.18,4.65ZM162.29,181.2c-.2,0-.36-.15-.36-.35s.16-.36.36-.36c.19,0,.35.16.35.36s-.16.35-.35.35ZM168.83,186.52c-1.47.77-4.53-2.79-5.69-5.17,1.15.3,9.1,3.36,5.69,5.17Z"/>
      <path class="st3" d="M174.03,144.48l-6.46-.6c-.92-.09-9.74-.26-9.86,1.44-1.26.2-2.97.19-4.36-.67.44-2.27,2.24-3.14,3.15-5.17-1.15-2.64-4.21-2.84-6.56-3.83,4.6-.52,7.85,2.73,11.87,3.1-2.84-6.35,3.27-2.81,3.29-6.89,0-.96.32-3.01-1.21-3.2l-4.81-.61c1.48-.52,2.65-1.24,3.57-2.3.84-.97,1.17-3.39.04-4.28-3.64.87-6.74,3.75-10.68,3.98l9.88-5.88c-1.32-.3-2.08-1.88-2.63-3.17-3.18.33-4.22,3.83-7.59,3.18,2.54-3.15,5.14-5.34,6.03-8.73,1.1-.63,3.31-.59,3.87-1.75,1.23-2.55-.4-4.43-2.68-4.83-2.16-.37-3.19,1.82-4.25,3.31-2.87-.51-6.13-2.47-9.37-1.59-.85-1.26-.58-2.34-1.41-2.78-.3,1.2-.26,1.95-.68,2.49-.26.34-.92-.9-1.36-1.03-1.41-.01-1.65,1.79-3.43,2.38-.18-.69,3.9-10.59,5.1-8.94.28.74-.73,1.57.89,2.25-.08-2.94,2.61-4.59,3.27-6.4,5.77,1.17,10.89,3.85,15.15,8.35,5.43-1.36.58,4.54,10.23,9,2.83-1.08,4.14-4.68,7.24-5.42-1.45,3.9-5.5,5.38-7.29,8.81-.85,1.62,1.71,3.81,2.64,4.9,1.04,1.21-.14,2.64-.24,3.9-.43,5.21.43,10.23-.33,15.37-.29,1.99-1.65,3.74-1.01,5.62Z"/>
      <path class="st3" d="M166.86,145.29c2.56-.43,4.68.88,7.06,1.4-.5.45-.54,1.08-.48,1.55.06.44,1.51,1.41,1.3,1.89-2.27,5.32-2.58,8.94-6.32,13.74-1.52,1.95-5.6,1.35-7.01,3.37-.73,1.38-.4,4.73-2.28,5.28-3.61-1.18-6.98-3.98-9.23-6.69l1.44-2.95c-.71-2.67-2.57-4.92-5.05-5.61-.4-.43-.55-1.05-.61-2.14,3.4,0,8.35,6.79,12.23,3.59,4.69-3.86,2.42-8.28,4.95-12.49,1.27-.74,2.66-.71,4-.94Z"/>
      <path class="st0" d="M167.57,143.88l-.7,1.41c-1.34.22-2.72.2-4,.94-1.26-1.72-3.31-1.19-5.16-.91.12-1.7,8.94-1.52,9.86-1.44Z"/>
      <path class="st5" d="M163.89,128.66l-4.82-.62c1.49-.51,2.66-1.24,3.57-2.29.84-.97,1.16-3.39.04-4.29-3.63.87-6.74,3.74-10.68,3.98l9.88-5.88c-1.33-.3-2.08-1.88-2.63-3.16-3.18.32-4.22,3.83-7.59,3.17,2.54-3.15,5.14-5.34,6.03-8.73,1.09-.63,3.31-.59,3.86-1.75,1.23-2.55-.4-4.43-2.68-4.83-2.17-.37-3.2,1.82-4.26,3.31-2.87-.51-6.13-2.47-9.36-1.59-.85-1.26-.58-2.34-1.41-2.77-.3,1.2-.26,1.94-.68,2.49-.26.33-.92-.92-1.35-1.04-1.41-.01-1.66,1.8-3.43,2.38-.17-.69,3.9-10.59,5.1-8.94-.15-.36.09-1.03.08-1.41-.5-3.88-5.23,4.56-6.86,5.64.02-3.3,1.91-5.36,3.44-8.06-.82-1.6-2.76-2.08-4.31-2.3-2.02,4.03-3.02,8.23-4.72,12.64-.19-5.18,1.23-9.84,3.15-14.03-1.41-.38-2.82.24-4.24.66-1.52.45-1.11,2.63-2.29,3.7-.89.82-2.4.68-3.02,1.59-.71,1.02-.4,2.32-.53,3.72-.11,1.1-1.93,1.26-2.95,1.77l.35,3.2c-3.98-5.86-3.57,3.63-9.65-.06-.63-1.21.81-2.56.4-3.67-4.17,5.31-6.99-3.23-10.39,1.07-3.68,4.62,4.92,6.48,2.76,11.99-2.38-1.67-3.96-4.35-6.61-4.25-1.91,4.72-2.68,1.13-5.54,4.03-1.26,1.28-1.09,2.58-.85,4.42.57,4.26,3.51,2.79,4.57,4.71,1.25,2.28-1.93,4.84-1.09,5.9.66.82,2.11-.1,3.36.82-.72.78-2.48.06-2.45,2.25,3.32.25,6.19.05,8.89,1.34-11.61,0-5.6,2.48-14.27,8.36-1.25.43-4.05-2.18-5.57-.82-1.55,1.37-.06,10.27,2.14,10.93,3.25-.93,6.24-3.41,8.93-5.76.97-1.45-2.23-3.41-4.04-3.29,1.34-1.6,2.6-3,4.16-4.31,1.26,2.49,1.36,4.98,3.47,5.93,2.79-.41,4.69-3.11,8.06-2.99-1.96,2.8-5.52,2.85-7.89,4.35l-10.54,6.65c2.75.42,5-1.24,8.23-2.58-3.31,4.41-7.23,2.01-6.04,8.51l6.75-3.56c-1.57,1.69-3.32,3.48-5.23,4.78.53.45,1.16,1.8,1.87,2.19,5.26-.56,7.92,2.58,9.84,6.37,1.23,2.43,5.59-.28,6.73-1.73,1.23-1.56,4.6-1.89,6.02-1.35.61.24.63,1.6,1.05,1.66.82.12.62-1.05,1.42-2.07.99,1.52.22,3.59,1.72,4.84l.58.1c-.35-.9.62-2.3,1.16-2.9.61-.66,2.01-.52,2.85-.9,2.6-1.23,1.65-4.19,3.21-6.59,1.96,3.21-1.36,5.41-.42,8.19,7-1.08,4.14,4.81,9.09,3.41,1.85-.53,3.41-2.24,2.29-4.46-.58-1.19-2.24-1.54-3.25-1.78-.57-.14-1.1-.33-1.18-1.3-.36-4.57-3.11-7.94-4.16-12.34,3.64,3.07,5.04,7.65,5.23,11.45,2.25-.89,2.54,2.86,3.95,3.38,1.95.69,5.08-1.28,6.79.37.56-.45,1.28-.61,1.98-.63l1.44-2.95c-.71-2.68-2.56-4.93-5.05-5.61.95,1.02,1.46,2.22.11,3.15-2.3-6.18-4.47-8.44-9.29-13.03-1.66.09-1.28-.76.24-.9l8.34,8.65c3.41.01,8.35,6.8,12.23,3.59,4.69-3.86,2.43-8.27,4.95-12.5-1.26-1.72-3.31-1.19-5.15-.9-1.26.2-2.96.2-4.36-.67.43-2.27,2.23-3.15,3.15-5.17-1.14-2.64-4.21-2.85-6.55-3.84,4.6-.51,7.84,2.74,11.87,3.11-2.84-6.34,3.27-2.81,3.3-6.89,0-.97.31-3.01-1.21-3.2ZM93.26,156.56c-.19,0-.35-.16-.35-.36s.16-.35.35-.35c.2,0,.36.15.36.35s-.16.36-.36.36ZM118.23,112.39l2.82,5.62-1.03.52-2.82-5.62,1.03-.52ZM103.04,126.01c0-.26-1.75-.47-1.65-.79.17-.53.81-.48,1-.36.2.12.87.52.64,1.15ZM101.36,123.59c-2.69-.21-5.04-2.82-5.64-5.49,3.02-.32,3.98,2.22,5.59,3.22,1.96,1.21,3.56,1.96,4.82,3.51-2.16-.57-3.17-2.01-4.77-1.24ZM106.67,107.4c1.91,1.25,3.37,3.03,4.68,4.45,1.14,1.25,1.1,3.79,3.72,4.79-.31,2.11-1.04,2.29-1.05.64-2.21-3.49-5.8-5.52-7.35-9.88ZM109.26,163.03c.27-2.69,2.17-3.75,3.17-5.57-.68,2.63-1.25,4.24-3.17,5.57ZM105.43,160.44c2.66-4,5.51-6.71,7.64-10.97-.63,4.48-3.62,8.37-7.64,10.97ZM116.24,161.11c-.67-1.11-.33-2.13.6-3.54,1.88-.37,3.85-.92,6.47.24-4.2.81-4.97,6.83-7.06,3.31ZM126.22,144.43c-1.19,2.68-4.74,4.62-8.01,2.9-1.44-.76-3.89-1.28-4.69-2.77l-2.86-5.36c1.14-.43,1.47-.54,1.73-.68.47-.27.26-1.59-.48-1.36-.77.24-1.23,1.19-1.76,1.19-.09,0-.17-.01-.24-.04-.01,0-.02,0-.04-.01-.05-.01-.1-.02-.14-.05-.05,0-.09-.02-.12-.06-.05-.02-.09-.05-.12-.09-.02,0-.05-.02-.06-.05-.07-.06-.12-.11-.17-.19-.06-.06-.1-.15-.15-.22-.07-.11-.14-.24-.19-.36-.04-.1-.07-.21-.11-.32-.05-.15-.09-.27-.1-.38-.02-.12-.05-.25-.07-.36-.01-.12-.04-.25-.05-.36-.1-.73-.09-1.31-.1-1.29.61-1.03,4.01-.53,4.52.19.54.78-.05,1.73.72,3.01,2.66-2.04,6.65-3.02,9.77-1.85,3.58,1.34,4.15,5.35,2.73,8.52ZM126.21,111.31c.38-2.63-1.85-5.82,1.24-9.1.24,3.03.2,5.52-1.24,9.1ZM144.27,161.68c-3.02-2.02-4.5-5.56-6.8-8.78,2.54,2.44,5.24,4.72,6.8,8.78ZM136.08,103.01c.54.09.64.73.5,1.05-.11.25-.66.38-1.15,1.73-.73-1.04.52-1.42.66-2.79ZM129.94,125.01c-.69-2.01.46-2.85.53-4.26,1.65,2.7,3.06-.21,5.44-.32-1.42,1.98-3.52,2.87-5.97,4.58ZM134.21,113.54c2.09-2.18,4.78-3.68,7.71-4.19,1.1,3.08-.25,5.18-2.82,7.47-1.65-.95-3.27-1.98-4.88-3.28ZM144.74,121.68c3.69-4.65,6.63-9.5,11.61-12.02-3.9,4.62-7.98,7.75-10.62,12.39-1.19,2.09-4.04,3.85-6.57,5.05,1.04-2.56,4.15-3.13,5.57-5.43ZM150.93,121.21c-5.38,1.71-.19-1.41.07-1.28.38.19.83.99-.07,1.28ZM150.97,145.73c-2.63.94-5.28.82-8.29.41l3.2-7.36c1.86,2.28,3.65,4.08,5.09,6.95ZM144.95,132.41c2.73-1.7,5.76-1.31,8.44-.01-3.37.36-5.61.37-8.44.01Z"/>
      <path class="st3" d="M150.72,84.74c-3.12,3.44-4.55,8.18-7.16,11.93-.49-3.88-5.23,4.56-6.86,5.64.02-3.3,1.91-5.37,3.44-8.07-.82-1.59-2.76-2.08-4.31-2.29,1.74-3.46,2.55-7.7,5.66-10.76,4.02-3.96,7.56,4.74,9.23,3.55Z"/>
      <path class="st1" d="M203.35,133.6c-3.07.47-9.19-.56-9.41-4.49-.63-3.16,12.64-3.44,13.1.37.34,2.81-.71,3.66-3.69,4.12Z"/>
      <path class="st3" d="M188.47,106.96c-2.83,1.16-5.1,2.96-8.08,3.37l8.28-8.38c1.17-.26,1.78,1.8,1.45,2.69-.25.68-.47,1.84-1.64,2.32Z"/>
      <circle class="st3" cx="180.6" cy="104.8" r=".35"/>
      <circle class="st3" cx="182.01" cy="103.39" r=".35"/>
      <circle class="st3" cx="179.19" cy="111.14" r=".35"/>
      <path class="st3" d="M134.36,75.78c-2.69.04-3.44,3.74-3.15,5.71.89-.02,1.82-.05,2.75.11,1.02.16,1.56,1.82.85,2.96-.9,1.45-2.87.54-3.96-.04-1.44.66-1.45,2.63-2.94,3.62-11.48.31-6.87,1.91-14.43,3.85l-1.13,8.09c-.19-1.82-.16-4.31-1.4-6.16-1.49-2.19-10.07.95-11.58,2.19-.25-2.11.36-3.68-.67-5.28-2.48-.55-7.79,7-7.78,7.58.02,1.21,1.24,1.98,1.97,3.77-1.98-.73-4.03-1.03-5.75.19-1.9,1.33-1.82,2.92-1.23,5.07,1.19-.11,6.09,5.48,6.45,6.9-2.61.02-3.26-2.5-4.91-3.67-1.41-1.02-1.24-2.09-1.55-3.23-3.28.31-2.08-1.16-5.71,5.44l4.36,4.25c-3.22,4.03-.42,6.86-1.69,11.05-.45,1.45-1.42,2.24-.58,3.44.78,1.11,1.78,1.19,3.63,2.19-3.33.36-6.06,2.5-8.56,4.3.72.14,1.8-.46,2.23.85-3.03-.3-5.45.21-7.98.33.72,7.38-.62,7.26,1.95,15.15.28.86-.42,1.96.17,2.63.48.56,2.06.47,2.55,1.33.83,1.42.94,5.61,3.37,5.69,4.62.12,8.39-3.53,11.93-5.39-1.19-6.5,2.74-4.1,6.04-8.51-3.22,1.34-5.48,3-8.23,2.58-1.13.72-3.75.67-3.41,3.08,1.19,1.23-.32,3.12-1.41,4.53-1.04.01-3.52.02-4.4-.85-1.39-1.41-.57-3.29.11-4.27,1.03-1.47,3.74-.98,5.04-.88.89-.25,1.5-1.45,1.91-2.19-2.21-.66-3.69-9.55-2.14-10.93,1.52-1.36,4.32,1.25,5.57.82,8.67-5.88,2.66-8.36,14.27-8.36-2.7-1.29-5.57-1.09-8.89-1.34-.02-2.19,1.73-1.47,2.45-2.25-1.25-.92-2.7,0-3.36-.82-.84-1.05,2.34-3.62,1.09-5.9-1.07-1.92-4-.45-4.57-4.71-.24-1.85-.41-3.15.85-4.42,2.86-2.9,3.63.69,5.54-4.03,2.65-.1,4.24,2.58,6.61,4.25,2.16-5.51-6.44-7.37-2.76-11.99,3.41-4.3,6.22,4.25,10.39-1.07.41,1.1-1.03,2.45-.4,3.67,6.08,3.69,5.67-5.8,9.65.06l-.35-3.2c1.02-.51,2.84-.67,2.95-1.77.14-1.4-.17-2.7.53-3.72.62-.9,2.13-.77,3.02-1.59,1.18-1.08.77-3.26,2.29-3.7,1.41-.42,2.82-1.04,4.24-.66l4.95-10.8c-1.16-1.18-2.91-3.99-4.86-3.96ZM94.41,130.47c1.45,1.41-.16,3.73-1.37,4.05-1.46.38-4.16.19-4.21-1.92-.04-1.26.58-2.34,1.28-2.56,1.13-.36,3.07-.78,4.31.43ZM93.96,103.48c-.25,0-.45-.2-.45-.45s.2-.45.45-.45.45.2.45.45-.2.45-.45.45Z"/>
      <path class="st3" d="M62.71,173.52c.17-.05.36-.12.53-.13,4.51-.08,8.42-2.07,13.08-3.12-3.89,2.72-6.99,5.42-11.2,7.24-1.28.18-2.4-2.81-2.41-3.99Z"/>
      <path class="st5" d="M64.8,119.77c-.05-1.4.58-2.71,1.88-3.3,1.15-.04,2.75.07,3.54,1.09.48.62.88,1.99,0,2.72-1.16.97-1.9,1.48-2.77,1.41-1.21-.09-2.11-1.43-2.66-1.93Z"/>
      <path class="st3" d="M121.78,169.84c-2.26,3.81,1.95,8.51-1.21,10.57-.98.64-3.29,1.52-4.53.92-1.39-.67-2.14-2.28-3.83-2.06-1.6.21-2.89.95-3.4,2.58-.41,1.32.39,2.55,1.05,3.68-5.96-2.78-6.15-6.65-8.55-6.01-.62.8-.56,2.69-1.72,2.51-.57-.08-1.91-.07-2.04-.83,2.18-3.05,5.63-5.19,7.29-8.35-3.67,1.77-5.39,6.85-9.89,6-2.31-.44-4.76-1.18-5.39-3.96l-3.65.57c-.09-6.24-.87.64-4.54-8.97,4.3-2.33,8.14-4.11,11.74-6.56.54.45,1.16,1.8,1.87,2.19,5.27-.56,7.91,2.58,9.83,6.37,1.23,2.42,5.58-.28,6.73-1.73,1.23-1.56,4.6-1.9,6.02-1.35.61.24.63,1.6,1.05,1.66.81.12.62-1.06,1.43-2.07.99,1.52.21,3.59,1.72,4.84Z"/>
      <path class="st3" d="M137.29,164.9l-.11-2.2c2.25-.89,2.53,2.87,3.95,3.38,1.94.7,5.07-1.27,6.79.37l4.65,4.44c.99.95,3.36,2.21,2.78,3.56-1.6.76-3.07,1.64-4.28,2.89-1.36,1.4-3.01-1.1-4.24-.79-.95.24-1.37,1.94-2.24,1.91s-1.63-.54-2.57-.63c-2.36-.22-4.38,1.33-6.81,1.35-3.59.04-6.82-.28-10.49.28-.16-3.52-1.21-6.49-2.37-9.53-.35-.91.62-2.3,1.17-2.9.6-.66,2.01-.51,2.85-.91,2.61-1.22,1.65-4.18,3.21-6.58,1.96,3.2-1.37,5.41-.43,8.19,7-1.08,4.14,4.8,9.1,3.4,1.84-.52,3.4-2.24,2.29-4.46-.59-1.19-2.25-1.53-3.25-1.77Z"/>
      <path class="st5" d="M93.36,186.39c-1.52.64-3.75-.29-4.86-1.86-.78-1.09,1.09-3.89,2.41-4.33,2.21-.75,3.94.05,4.63,1.54.85,1.81.24,3.63-2.19,4.65Z"/>
      <path class="st5" d="M116.04,181.33c.01,1.55-.34,3.25-1.63,4.09-1.37.89-3.17.75-4.55.11-.66-1.13-1.47-2.36-1.05-3.68.51-1.63,1.8-2.37,3.4-2.58,1.69-.22,2.44,1.39,3.83,2.06Z"/>
      <path class="st3" d="M163.15,181.36c1.15.3,9.11,3.35,5.68,5.16-1.47.77-4.52-2.79-5.68-5.16Z"/>
      <circle class="st3" cx="77.06" cy="169.58" r=".35"/>
      <circle class="st3" cx="162.29" cy="180.85" r=".35"/>
      <path class="st0" d="M145.68,155.13c.05,1.09.2,1.71.61,2.14.96,1.02,1.46,2.22.11,3.15-2.31-6.18-4.48-8.43-9.29-13.02-1.67.09-1.28-.76.23-.91l8.34,8.65Z"/>
      <circle class="st5" cx="82.16" cy="91.57" r="3.61"/>
      <path class="st3" d="M72.3,90.95c-.44-.68,7.33,14.54,7.25,11.05.01.48.02.83-.38,1.05-.9.49-.93-.61-1.39-1.11-2.58-2.8-11.36-8.12-9.11-10.93.54-.67,2.94-1.13,3.63-.06Z"/>
      <path class="st5" d="M130.85,84.53c-.37-.98.51-2.1.37-3.03.89-.02,1.82-.05,2.75.11,1.01.17,1.56,1.83.85,2.96-.9,1.45-2.88.55-3.97-.03Z"/>
      <path class="st3" d="M146.68,66.21l-4.99,6.6c.69-2.43,1.75-8.28,3.71-8.07.39.04.98.15,1.28,1.47Z"/>
      <path class="st2" d="M112.19,143.43l-4.82-9.45c1.92-.76,2.48-.95,2.92-1.21.8-.47.45-2.79-.8-2.38-1.29.41-2.07,2.09-2.97,2.08-2.96-.04-2.72-6.77-2.79-6.64,1.03-1.82,6.77-.95,7.62.32.92,1.38-.08,3.06,1.2,5.29,4.49-3.6,11.22-5.31,16.48-3.25,6.04,2.36,6.98,9.43,4.6,15.03-2.01,4.71-7.99,8.14-13.51,5.11-2.42-1.33-6.56-2.24-7.91-4.89Z"/>
      <path class="st0" d="M99.78,144.76l.17,1.36-10.54,6.65c-1.13.71-3.74.66-3.4,3.08-.39-.41-.79-.84-.66-1.47.9-.25,1.51-1.45,1.92-2.19,3.24-.93,6.24-3.4,8.93-5.76.97-1.46-2.24-3.41-4.04-3.3,1.34-1.6,2.6-3,4.16-4.32,1.27,2.49,1.37,4.98,3.47,5.94Z"/>
      <path class="st5" d="M139.09,116.82c-1.65-.94-3.26-1.98-4.88-3.28,2.09-2.18,4.78-3.68,7.71-4.18,1.1,3.08-.26,5.18-2.83,7.46Z"/>
      <path class="st1" d="M150.97,145.73c-2.63.95-5.28.82-8.28.41l3.19-7.36c1.86,2.28,3.65,4.08,5.09,6.95Z"/>
      <path class="st0" d="M123.3,157.8c-4.19.8-4.96,6.83-7.06,3.31-.67-1.12-.33-2.13.59-3.55,1.89-.37,3.86-.92,6.47.23Z"/>
      <path class="st0" d="M137.18,162.7l.11,2.2c-.57-.14-1.1-.34-1.17-1.31-.36-4.57-3.11-7.94-4.17-12.33,3.65,3.07,5.05,7.66,5.23,11.44Z"/>
      <path class="st0" d="M101.32,121.32l.05,2.26c-2.7-.21-5.05-2.82-5.64-5.48,3.02-.33,3.97,2.21,5.59,3.21Z"/>
      <path class="st0" d="M105.43,160.44c2.66-4.01,5.52-6.72,7.64-10.98-.63,4.48-3.62,8.38-7.64,10.98Z"/>
      <path class="st0" d="M145.73,122.05c-.27-.05-1.15.32-1-.37,3.69-4.65,6.63-9.51,11.61-12.01-3.9,4.62-7.97,7.75-10.61,12.38Z"/>
      <path class="st0" d="M115.07,116.63c-.31,2.11-1.04,2.29-1.06.65-2.2-3.5-5.79-5.53-7.34-9.88,1.9,1.25,3.37,3.03,4.67,4.45,1.14,1.24,1.11,3.78,3.72,4.78Z"/>
      <path class="st3" d="M144.27,161.68c-3.02-2.02-4.5-5.57-6.79-8.79,2.54,2.44,5.24,4.71,6.79,8.79Z"/>
      <path class="st3" d="M145.73,122.05c-1.19,2.1-4.04,3.85-6.58,5.06,1.04-2.56,4.15-3.14,5.58-5.43-.15.69.73.32,1,.37Z"/>
      <path class="st3" d="M99.95,146.12l-.17-1.36c2.79-.42,4.7-3.12,8.06-3-1.95,2.81-5.52,2.85-7.89,4.35Z"/>
      <path class="st3" d="M126.21,111.31c.38-2.63-1.85-5.82,1.24-9.11.23,3.04.19,5.53-1.24,9.11Z"/>
      <path class="st3" d="M129.93,125.02c-.68-2.02.47-2.86.54-4.26,1.65,2.7,3.07-.21,5.44-.32-1.43,1.98-3.52,2.88-5.98,4.59Z"/>
      <rect class="st0" x="118.55" y="112.31" width="1.15" height="6.3" transform="translate(-39.18 65.85) rotate(-26.7)"/>
      <path class="st3" d="M153.39,132.39c-3.37.36-5.62.37-8.44.01,2.73-1.7,5.76-1.31,8.44-.01Z"/>
      <path class="st0" d="M109.27,163.03c.27-2.69,2.16-3.76,3.17-5.58-.69,2.63-1.26,4.24-3.17,5.58Z"/>
      <path class="st3" d="M101.36,123.58l-.05-2.26c1.96,1.21,3.55,1.96,4.81,3.5-2.15-.56-3.17-2-4.76-1.24Z"/>
      <path class="st3" d="M150.93,121.21c-5.38,1.71-.18-1.41.08-1.28.38.19.83,1-.08,1.28Z"/>
      <path class="st3" d="M135.42,105.8c-.74-1.04.51-1.43.66-2.78.54.08.64.73.49,1.05-.11.24-.65.38-1.16,1.73Z"/>
      <path class="st0" d="M103.04,126.04c.1-.27-1.75-.48-1.64-.81.17-.54.81-.48,1-.36s.87.53.64,1.17Z"/>
      <circle class="st3" cx="93.26" cy="156.2" r=".35"/>
      <path class="st5" d="M85.35,154.38c-.13.63.26,1.06.66,1.47,1.19,1.23-.32,3.12-1.41,4.54-1.04,0-3.52.02-4.39-.86-1.39-1.41-.57-3.29.11-4.27,1.03-1.47,3.74-.98,5.04-.88Z"/>
      <path class="st5" d="M94.41,130.47c1.45,1.41-.16,3.73-1.38,4.05-1.46.39-4.17.19-4.22-1.92-.03-1.27.58-2.34,1.28-2.57,1.13-.36,3.06-.78,4.31.44Z"/>
      <path class="st0" d="M158.4,67.1c-2.46-1.07-2.91-2.87-2.8-5.61.05-1.16-1.03-2.49-.28-3.43,2.56-3.23,2.06.94,5.98-3.59l6.17-7.14c-4.89-6.22-6.65-3.34-11.85-3.1-6.73.31-1.98,12.04-16.38,11.74-.24,2.99-2.7,4.76-3.53,7.3l-4.03,12.39c-.35,1.04-4.26,1.19-4.36.14l-1.11-11.63c-.36-3.77-3.36-6.84-4.83-11.06-2.08,2.89.38,5.17,1.2,7.4.78,2.17,2.64,13.68,1.71,15.57-.56,1.11-1.8.97-2.7.78-2.9-.62-3.53-13.35-6.17-16.72l-5.28-6.71c-2.49-3.17-4.35-6.32-7.68-8.65-2.94-2.04-5.85-4.66-9.98-4.87.85,6.62,9.81,8.67,9.36,18.54l-5.78,4.95c-2.11-2.4-4.68-.26-6.52-.17l-6.32,4.1c1.76.94,4.43-.77,5.86,2.56.71,1.63,2.37,3.02,1.67,5.78-1.31,5.19.84,7.93-2.71,10.44-.87.59-3.37.31-3.33-.61.06-1.81.3-10.97-2.7-9.07-1.4.89,1.19,4.76-3.65,7.15-.89.45-1.52,1.44-2.65,1.12-.04-.01-5.57-6.69-6.06-8.5-.36-1.35-.84-2.29-1.83-2.66-1.3-.51-2.11.9-3.07,1.2-3.12.95-4.21,2.68-5.38,5.41-.92,2.14-.41,2.63.54,4.53,1.18,2.32,1.99,4.61,3.82,6.68.82,1.59-1.18,4.27-1.39,5.82.73,1.69,2.69,2.44,3.63,3.95,4.1,6.58,8.53,6.5,8.68,8.68.56,7.73-11.06.47-17.68,1.1l-7.37.69c-.46.04-.05,1.62.35,1.62,6.5-.2,2.13.14,5.7.84,5.57,1.1,11.17-1.51,11.02,2.38,1.15-.04,2.75.07,3.54,1.1.48.61.88,1.98.01,2.73-1.16.97-1.9,1.47-2.78,1.4-1.2-.09-2.11-1.42-2.65-1.92-.83-.76-3.05-1.23-4.16-.64-3.56,1.87-7.31-.47-10.5.72l-7.57,2.82c-5.21,1.93-10.44,4.01-14.13,8.41,7.67.14,15.25-4.51,22.47-2.22,5.87,1.87-.3,8.36,2.14,15.2,11.07-6.29,12.49-7.21,24.33-5.95,2.5-1.8,5.23-3.94,8.56-4.3-1.85-1-2.85-1.08-3.63-2.19-.84-1.2.14-1.99.58-3.44,1.26-4.19-1.54-7.02,1.69-11.05l-4.36-4.25c3.63-6.6,2.43-5.13,5.71-5.44-.59-2.14-.67-3.74,1.23-5.07,1.72-1.21,3.77-.92,5.75-.19-.73-1.78-1.94-2.55-1.97-3.77-.01-.58,5.3-8.13,7.78-7.58,1.03,1.6.42,3.17.67,5.28,1.51-1.24,10.1-4.39,11.58-2.19,1.24,1.85,1.21,4.34,1.4,6.16l1.13-8.09c7.56-1.94,2.95-3.54,14.43-3.85,1.49-.99,1.5-2.96,2.94-3.62-.37-.98.51-2.09.36-3.04-.3-1.97.46-5.67,3.15-5.71,1.94-.02,3.69,2.79,4.86,3.96l-4.95,10.8c-1.92,4.2-3.33,8.86-3.15,14.03,1.7-4.41,2.7-8.61,4.72-12.64,1.75-3.46,2.55-7.69,5.66-10.75,4.01-3.96,7.56,4.74,9.23,3.54,2.98-3.3,7.58-4.74,11.42-7.62-5.38-3.82,1.57-7.73-3.74-10.02ZM79.17,103.05c-.9.5-.93-.61-1.4-1.11-2.58-2.8-11.35-8.11-9.1-10.93.37-.46,1.62-.83,2.59-.66.14.01.27.05.4.1.26.1.48.25.63.47,0,0,0,.01.01.03.01.02.02.05.04.09.02.06.06.14.11.24s.11.21.17.36c.19.36.43.84.72,1.39.07.15.15.28.22.43.28.53.59,1.12.93,1.72.19.35.38.71.58,1.07.1.17.19.35.3.53.17.31.35.61.51.92.04.05.06.11.1.16.21.35.41.71.61,1.04.04.06.07.12.11.19.16.27.32.53.48.78.19.31.37.59.56.87.17.26.35.51.5.72.05.05.07.1.11.14.1.14.2.25.28.36.1.11.19.21.27.3.05.05.09.09.14.12.06.06.12.1.19.12.05.02.09.04.12.04.14,0,.21-.15.21-.47.01.46,0,.79-.38,1ZM82.16,95.18c-1.99,0-3.6-1.62-3.6-3.62s1.61-3.6,3.6-3.6,3.62,1.61,3.62,3.6-1.62,3.62-3.62,3.62ZM141.68,72.81c.69-2.43,1.76-8.27,3.72-8.06.4.04.98.15,1.28,1.46l-4.99,6.6Z"/>
      <path class="st0" d="M85.93,107.45c1.18-.11,6.09,5.47,6.45,6.89-2.61.03-3.26-2.49-4.9-3.66-1.42-1.01-1.24-2.09-1.55-3.23Z"/>
      <circle class="st0" cx="93.97" cy="103.04" r=".45"/>
    </g>
  </g>
</svg>